<svg width="40" height="40" viewBox="0 0 40 40" fill="none" xmlns="http://www.w3.org/2000/svg">
<g clip-path="url(#clip0_259_8)">
<rect width="40" height="40" fill="white"/>
<g filter="url(#filter0_d_259_8)">
<path d="M32.0596 26.488L21.2116 7.128C21.2116 7.128 19.2276 8.952 15.5476 9.176C17.1156 9.976 17.4676 10.904 17.4676 10.904L10.9396 23.224C10.9396 23.224 6.52363 30.584 4.47563 30.584V31H12.8916V30.584C11.3236 30.584 8.31563 29.08 11.6436 22.872H24.2196L27.0676 27.768C28.2836 29.752 28.1556 30.584 26.6516 30.584V31H35.5156V30.584C34.3636 30.584 33.2116 28.408 32.0596 26.488ZM11.9316 22.424L17.7876 11.288L23.9636 22.424H11.9316Z" fill="black"/>
<path d="M32.0596 26.488L31.5362 26.7813L31.5405 26.7891L31.5451 26.7967L32.0596 26.488ZM21.2116 7.128L21.7351 6.8347L21.3641 6.17275L20.8055 6.6863L21.2116 7.128ZM15.5476 9.176L15.5112 8.57711L13.3155 8.71075L15.2749 9.71046L15.5476 9.176ZM17.4676 10.904L17.9978 11.1849L18.1249 10.945L18.0286 10.6912L17.4676 10.904ZM10.9396 23.224L11.4541 23.5327L11.4623 23.519L11.4698 23.5049L10.9396 23.224ZM4.47563 30.584V29.984H3.87563V30.584H4.47563ZM4.47563 31H3.87563V31.6H4.47563V31ZM12.8916 31V31.6H13.4916V31H12.8916ZM12.8916 30.584H13.4916V29.984H12.8916V30.584ZM11.6436 22.872V22.272H11.2845L11.1148 22.5885L11.6436 22.872ZM24.2196 22.872L24.7383 22.5703L24.5647 22.272H24.2196V22.872ZM27.0676 27.768L26.5489 28.0698L26.5561 28.0815L27.0676 27.768ZM26.6516 30.584V29.984H26.0516V30.584H26.6516ZM26.6516 31H26.0516V31.6H26.6516V31ZM35.5156 31V31.6H36.1156V31H35.5156ZM35.5156 30.584H36.1156V29.984H35.5156V30.584ZM11.9316 22.424L11.4006 22.1447L10.9382 23.024H11.9316V22.424ZM17.7876 11.288L18.3123 10.997L17.7736 10.0256L17.2566 11.0087L17.7876 11.288ZM23.9636 22.424V23.024H24.9825L24.4883 22.133L23.9636 22.424ZM32.5831 26.1947L21.7351 6.8347L20.6882 7.42129L31.5362 26.7813L32.5831 26.1947ZM21.2116 7.128C20.8055 6.6863 20.8057 6.68613 20.8059 6.68598C20.8059 6.68593 20.8061 6.68578 20.8062 6.6857C20.8064 6.68552 20.8066 6.68538 20.8067 6.68526C20.8069 6.68502 20.8071 6.68489 20.8071 6.68487C20.8071 6.68483 20.8067 6.68522 20.8058 6.68602C20.804 6.68763 20.8003 6.6909 20.7948 6.69573C20.7837 6.70539 20.7651 6.72129 20.739 6.7426C20.687 6.78524 20.6053 6.84948 20.4946 6.9288C20.2732 7.08751 19.9363 7.30604 19.4886 7.53269C18.5939 7.98567 17.2573 8.47082 15.5112 8.57711L15.5841 9.77489C17.518 9.65717 19.0134 9.11833 20.0306 8.6033C20.539 8.34595 20.9281 8.09449 21.1936 7.9042C21.3264 7.80901 21.4285 7.729 21.4993 7.67102C21.5347 7.64202 21.5624 7.61851 21.5821 7.60135C21.592 7.59276 21.5999 7.58576 21.6058 7.58045C21.6088 7.5778 21.6113 7.57557 21.6132 7.57377C21.6142 7.57287 21.6151 7.57208 21.6158 7.5714C21.6162 7.57106 21.6166 7.57075 21.6169 7.57047C21.617 7.57033 21.6172 7.57013 21.6173 7.57006C21.6175 7.56988 21.6177 7.5697 21.2116 7.128ZM15.2749 9.71046C15.9895 10.075 16.4071 10.4581 16.6397 10.73C16.7566 10.8667 16.8286 10.9774 16.8686 11.0467C16.8887 11.0814 16.9008 11.1059 16.9066 11.1182C16.9095 11.1244 16.9109 11.1275 16.9108 11.1273C16.9108 11.1273 16.9104 11.1264 16.9097 11.1246C16.9093 11.1237 16.9089 11.1227 16.9084 11.1214C16.9081 11.1207 16.9079 11.12 16.9076 11.1192C16.9074 11.1189 16.9073 11.1185 16.9071 11.1181C16.907 11.1179 16.9069 11.1175 16.9069 11.1174C16.9067 11.1171 16.9066 11.1168 17.4676 10.904C18.0286 10.6912 18.0285 10.6909 18.0284 10.6905C18.0283 10.6904 18.0282 10.6901 18.0281 10.6899C18.0279 10.6894 18.0277 10.6889 18.0276 10.6884C18.0272 10.6874 18.0268 10.6864 18.0263 10.6853C18.0255 10.6831 18.0245 10.6807 18.0235 10.678C18.0213 10.6727 18.0188 10.6665 18.0158 10.6594C18.0098 10.6453 18.002 10.6277 17.9922 10.6069C17.9727 10.5653 17.9451 10.5111 17.9076 10.4463C17.8327 10.3166 17.7187 10.1453 17.5516 9.94998C17.2161 9.55786 16.6737 9.07696 15.8203 8.64154L15.2749 9.71046ZM16.9375 10.6231L10.4095 22.9431L11.4698 23.5049L17.9978 11.1849L16.9375 10.6231ZM10.9396 23.224C10.4251 22.9153 10.4251 22.9153 10.4251 22.9153C10.4251 22.9153 10.4251 22.9154 10.4251 22.9154C10.425 22.9156 10.4248 22.9159 10.4246 22.9162C10.4241 22.917 10.4234 22.9182 10.4224 22.9198C10.4205 22.9231 10.4175 22.928 10.4134 22.9347C10.4054 22.9481 10.3932 22.9681 10.3771 22.9945C10.345 23.0471 10.2974 23.1249 10.2359 23.2241C10.1129 23.4226 9.93439 23.7069 9.71373 24.0483C9.27187 24.7319 8.66324 25.6407 7.99312 26.5474C7.32027 27.4577 6.59798 28.3486 5.92903 29.0061C5.59408 29.3353 5.28728 29.5913 5.01961 29.7613C4.74108 29.9383 4.56435 29.984 4.47563 29.984V31.184C4.8989 31.184 5.30817 30.9997 5.66314 30.7742C6.02897 30.5417 6.40317 30.2227 6.77022 29.8619C7.50527 29.1394 8.27098 28.1903 8.95813 27.2606C9.64802 26.3273 10.2714 25.3961 10.7215 24.6997C10.9469 24.3511 11.1294 24.0604 11.2558 23.8564C11.3191 23.7544 11.3683 23.674 11.4019 23.6188C11.4187 23.5913 11.4316 23.57 11.4404 23.5555C11.4448 23.5482 11.4481 23.5427 11.4504 23.5389C11.4516 23.537 11.4524 23.5355 11.4531 23.5345C11.4534 23.5339 11.4536 23.5335 11.4538 23.5332C11.4539 23.5331 11.454 23.533 11.454 23.5329C11.4541 23.5328 11.4541 23.5327 10.9396 23.224ZM3.87563 30.584V31H5.07563V30.584H3.87563ZM4.47563 31.6H12.8916V30.4H4.47563V31.6ZM13.4916 31V30.584H12.2916V31H13.4916ZM12.8916 29.984C12.2577 29.984 11.3794 29.6771 10.9763 28.8044C10.565 27.9138 10.5365 26.2072 12.1724 23.1555L11.1148 22.5885C9.4228 25.7448 9.23421 27.8942 9.88691 29.3076C10.5479 30.7389 11.9575 31.184 12.8916 31.184V29.984ZM11.6436 23.472H24.2196V22.272H11.6436V23.472ZM23.701 23.1737L26.549 28.0697L27.5863 27.4663L24.7383 22.5703L23.701 23.1737ZM26.5561 28.0815C26.8502 28.5615 27.0493 28.9499 27.1662 29.2579C27.2869 29.5759 27.2981 29.752 27.2862 29.8315C27.2808 29.8677 27.2801 29.8721 27.2399 29.8935C27.1625 29.9348 26.988 29.984 26.6516 29.984V31.184C27.0673 31.184 27.4728 31.1292 27.8043 30.9525C28.1731 30.7559 28.4105 30.4283 28.4731 30.0085C28.5292 29.632 28.4384 29.2281 28.2881 28.8321C28.134 28.4261 27.893 27.9665 27.5792 27.4545L26.5561 28.0815ZM26.0516 30.584V31H27.2516V30.584H26.0516ZM26.6516 31.6H35.5156V30.4H26.6516V31.6ZM36.1156 31V30.584H34.9156V31H36.1156ZM35.5156 29.984C35.4208 29.984 35.2638 29.9383 35.03 29.7483C34.7992 29.5608 34.5462 29.2751 34.2712 28.9008C33.7171 28.1466 33.1649 27.1639 32.5741 26.1793L31.5451 26.7967C32.1064 27.7321 32.7062 28.7974 33.3041 29.6112C33.6051 30.0209 33.9281 30.3992 34.2733 30.6797C34.6155 30.9577 35.0345 31.184 35.5156 31.184V29.984ZM12.4627 22.7033L18.3187 11.5673L17.2566 11.0087L11.4006 22.1447L12.4627 22.7033ZM17.2629 11.579L23.4389 22.715L24.4883 22.133L18.3123 10.997L17.2629 11.579ZM23.9636 21.824H11.9316V23.024H23.9636V21.824Z" fill="black"/>
</g>
</g>
<defs>
<filter id="filter0_d_259_8" x="-59.5244" y="-56.872" width="159.04" height="151.872" filterUnits="userSpaceOnUse" color-interpolation-filters="sRGB">
<feFlood flood-opacity="0" result="BackgroundImageFix"/>
<feColorMatrix in="SourceAlpha" type="matrix" values="0 0 0 0 0 0 0 0 0 0 0 0 0 0 0 0 0 0 127 0" result="hardAlpha"/>
<feOffset/>
<feGaussianBlur stdDeviation="32"/>
<feComposite in2="hardAlpha" operator="out"/>
<feColorMatrix type="matrix" values="0 0 0 0 1 0 0 0 0 1 0 0 0 0 1 0 0 0 0.5 0"/>
<feBlend mode="normal" in2="BackgroundImageFix" result="effect1_dropShadow_259_8"/>
<feBlend mode="normal" in="SourceGraphic" in2="effect1_dropShadow_259_8" result="shape"/>
</filter>
<clipPath id="clip0_259_8">
<rect width="40" height="40" fill="white"/>
</clipPath>
</defs>
</svg>
