<svg width="466" height="57" viewBox="0 0 466 57" fill="none" xmlns="http://www.w3.org/2000/svg">
<g clip-path="url(#clip0_289_38)">
<path d="M59.688 41.976L37.992 3.256C37.992 3.256 34.024 6.904 26.664 7.352C29.8 8.952 30.504 10.808 30.504 10.808L17.448 35.448C17.448 35.448 8.61601 50.168 4.52001 50.168V51H21.352V50.168C18.216 50.168 12.2 47.16 18.856 34.744H44.008L49.704 44.536C52.136 48.504 51.88 50.168 48.872 50.168V51H66.6V50.168C64.296 50.168 61.992 45.816 59.688 41.976ZM19.432 33.848L31.144 11.576L43.496 33.848H19.432ZM83.4495 9.656C83.4495 5.688 85.2415 5.048 87.9295 5.048V4.216H68.8575V5.048C71.3535 5.048 73.3375 5.624 73.3375 9.656V45.56C73.3375 49.528 71.3535 50.168 68.8575 50.168V51H87.9295V50.168C85.4335 50.168 83.4495 49.528 83.4495 45.56V9.656ZM133.075 28.472C135.507 28.28 148.819 26.36 148.819 16.376C148.819 3.576 133.843 4.216 130.131 4.216H90.259V5.048C91.475 5.048 94.739 4.92 94.739 9.72V45.56C94.739 50.36 91.795 50.168 90.195 50.168V51H109.459V50.168C107.667 50.168 104.979 50.424 104.979 45.496V28.728H126.675C133.587 28.728 134.803 51 142.099 51H156.947V50.168C144.915 50.168 149.459 28.408 133.075 28.472ZM104.979 27.896V9.656C104.979 6.392 105.683 5.176 107.475 5.176H130.131C135.571 5.176 137.427 10.424 137.427 16.376C137.427 26.296 131.155 27.896 129.171 27.896H104.979ZM187.83 23.928C179.51 21.816 168.374 19.896 168.374 12.92C168.374 5.368 181.11 4.664 187.062 4.664C197.75 4.664 208.822 10.744 208.758 19.768H209.654L210.678 7.736C210.678 7.736 201.782 3.768 186.998 3.768C186.998 3.768 159.158 3.128 159.158 17.144C159.158 28.152 172.406 29.752 181.942 32.12C190.966 34.488 202.23 36.6 202.23 42.424C202.23 46.648 196.534 50.488 183.734 50.488C173.494 50.488 163.062 45.432 162.742 35.96H161.846L160.502 48.696C160.502 48.696 168.246 51.448 183.67 51.448C183.67 51.448 212.214 52.344 212.214 39.352C212.214 29.304 194.806 25.848 187.83 23.928ZM274.849 5.048V4.216H255.777V5.048C258.273 5.048 260.257 5.624 260.257 9.656V27.128H229.025V9.656C229.025 5.688 230.817 5.048 233.505 5.048V4.216H214.433V5.048C216.929 5.048 218.913 5.624 218.913 9.656V45.56C218.913 49.528 216.929 50.168 214.433 50.168V51H233.505V50.168C231.009 50.168 229.025 49.528 229.025 45.56V28.024H260.257V45.56C260.257 49.528 258.273 50.168 255.777 50.168V51H274.849V50.168C272.353 50.168 270.369 49.528 270.369 45.56V9.656C270.369 5.688 272.161 5.048 274.849 5.048ZM319.899 4.216V5.048C329.051 5.048 324.379 13.432 318.875 19.64L311.003 28.472L294.043 7.48C292.763 6.008 292.635 5.048 295.835 5.048V4.216H277.083V5.112C279.195 5.112 283.035 10.04 283.035 10.04L301.211 32.44V45.56C301.211 49.528 299.099 50.168 296.731 50.168V51H315.803V50.168C313.435 50.168 311.323 49.528 311.323 45.56L311.387 29.368L320.155 19.512C324.123 15.096 333.467 5.048 336.411 5.048V4.216H319.899ZM381.55 28.472C383.982 28.28 397.294 26.36 397.294 16.376C397.294 3.576 382.318 4.216 378.606 4.216H338.734V5.048C339.95 5.048 343.214 4.92 343.214 9.72V45.56C343.214 50.36 340.27 50.168 338.67 50.168V51H357.934V50.168C356.142 50.168 353.454 50.424 353.454 45.496V28.728H375.15C382.062 28.728 383.278 51 390.574 51H405.422V50.168C393.39 50.168 397.934 28.408 381.55 28.472ZM353.454 27.896V9.656C353.454 6.392 354.158 5.176 355.95 5.176H378.606C384.046 5.176 385.902 10.424 385.902 16.376C385.902 26.296 379.63 27.896 377.646 27.896H353.454ZM462.48 36.6C460.88 42.488 454.8 50.04 448.528 50.04H426.064C424.336 50.04 422.16 48.824 422.16 45.752V27.896H439.696C445.008 28.088 450.512 32.44 450.512 36.664H451.536V17.976H450.512C450.512 22.2 445.328 26.808 439.824 27H422.16V9.464C422.16 7.224 423.184 5.176 425.68 5.176H446.352C452.496 5.176 459.216 11.192 461.584 17.016H462.672L461.072 4.216H407.632V5.048C408.976 5.048 412.176 5.176 412.176 9.656V45.56C412.176 49.272 410 50.168 407.632 50.168V51H462.8L463.504 36.6H462.48Z" fill="black"/>
<path d="M59.688 41.976L59.0337 42.3426L59.0392 42.3523L59.0449 42.3619L59.688 41.976ZM37.992 3.256L38.6463 2.88938L38.1827 2.06194L37.4844 2.70387L37.992 3.256ZM26.664 7.352L26.6184 6.60338L23.8739 6.77044L26.3232 8.02007L26.664 7.352ZM30.504 10.808L31.1667 11.1592L31.3256 10.8593L31.2053 10.542L30.504 10.808ZM17.448 35.448L18.0911 35.8339L18.1014 35.8168L18.1107 35.7992L17.448 35.448ZM4.52001 50.168V49.418H3.77001V50.168H4.52001ZM4.52001 51H3.77001V51.75H4.52001V51ZM21.352 51V51.75H22.102V51H21.352ZM21.352 50.168H22.102V49.418H21.352V50.168ZM18.856 34.744V33.994H18.4071L18.195 34.3896L18.856 34.744ZM44.008 34.744L44.6563 34.3669L44.4394 33.994H44.008V34.744ZM49.704 44.536L49.0557 44.9131L49.0601 44.9206L49.0646 44.9279L49.704 44.536ZM48.872 50.168V49.418H48.122V50.168H48.872ZM48.872 51H48.122V51.75H48.872V51ZM66.6 51V51.75H67.35V51H66.6ZM66.6 50.168H67.35V49.418H66.6V50.168ZM19.432 33.848L18.7682 33.4989L18.1902 34.598H19.432V33.848ZM31.144 11.576L31.7999 11.2122L31.1265 9.99797L30.4802 11.2269L31.144 11.576ZM43.496 33.848V34.598H44.7696L44.1519 33.4842L43.496 33.848ZM60.3423 41.6094L38.6463 2.88938L37.3377 3.62261L59.0337 42.3426L60.3423 41.6094ZM37.992 3.256C37.4844 2.70387 37.4846 2.70367 37.4848 2.70348C37.4849 2.70344 37.4851 2.70327 37.4852 2.70318C37.4854 2.70301 37.4855 2.70289 37.4856 2.70282C37.4857 2.70269 37.4856 2.70278 37.4853 2.70308C37.4846 2.70369 37.483 2.70515 37.4804 2.70746C37.4753 2.71206 37.4663 2.72 37.4536 2.73107C37.4281 2.7532 37.3875 2.78785 37.3319 2.83336C37.2208 2.9244 37.0498 3.05879 36.8201 3.22337C36.3607 3.55263 35.6673 4.00205 34.7492 4.46687C32.9138 5.39609 30.1811 6.38653 26.6184 6.60338L26.7096 8.10061C30.507 7.86947 33.4382 6.81191 35.4268 5.80513C36.4207 5.30194 37.1793 4.81136 37.6939 4.44262C37.9512 4.2582 38.1477 4.10409 38.2823 3.99388C38.3496 3.93876 38.4015 3.8946 38.4377 3.86308C38.4558 3.84733 38.4701 3.83472 38.4804 3.82549C38.4856 3.82088 38.4897 3.81711 38.4929 3.8142C38.4945 3.81275 38.4959 3.81152 38.497 3.8105C38.4976 3.80999 38.4981 3.80954 38.4985 3.80915C38.4987 3.80895 38.499 3.80869 38.4991 3.80859C38.4994 3.80835 38.4996 3.80812 37.992 3.256ZM26.3232 8.02007C27.8044 8.77579 28.6864 9.57867 29.1901 10.1675C29.4427 10.4629 29.6024 10.707 29.6956 10.8683C29.7423 10.949 29.7724 11.0091 29.7891 11.0447C29.7975 11.0625 29.8026 11.0742 29.8047 11.0792C29.8058 11.0817 29.8061 11.0826 29.8058 11.0818C29.8056 11.0813 29.8053 11.0805 29.8048 11.0792C29.8045 11.0785 29.8042 11.0778 29.8039 11.0769C29.8037 11.0765 29.8035 11.076 29.8033 11.0755C29.8033 11.0753 29.8031 11.0749 29.8031 11.0748C29.8029 11.0744 29.8028 11.074 30.504 10.808C31.2053 10.542 31.2051 10.5416 31.2049 10.5412C31.2049 10.541 31.2047 10.5406 31.2046 10.5403C31.2044 10.5397 31.2041 10.5391 31.2039 10.5384C31.2034 10.5371 31.2028 10.5357 31.2022 10.5341C31.201 10.531 31.1996 10.5275 31.198 10.5235C31.1948 10.5155 31.1908 10.5058 31.186 10.4943C31.1763 10.4714 31.1631 10.4416 31.1461 10.4055C31.1122 10.3334 31.0627 10.236 30.9944 10.1177C30.8576 9.88102 30.6453 9.56114 30.3299 9.19247C29.6977 8.45332 28.6596 7.5282 27.0049 6.68393L26.3232 8.02007ZM29.8413 10.4568L16.7853 35.0968L18.1107 35.7992L31.1667 11.1592L29.8413 10.4568ZM17.448 35.448C16.8049 35.0621 16.8049 35.0621 16.8049 35.0622C16.8048 35.0623 16.8047 35.0624 16.8046 35.0625C16.8044 35.0629 16.8041 35.0635 16.8036 35.0643C16.8026 35.0659 16.8011 35.0684 16.7991 35.0718C16.795 35.0785 16.7889 35.0887 16.7807 35.1022C16.7643 35.1294 16.7397 35.1699 16.7073 35.2231C16.6426 35.3294 16.5467 35.4858 16.423 35.6854C16.1757 36.0844 15.8172 36.6554 15.3741 37.3409C14.4873 38.7128 13.2645 40.5389 11.9169 42.3622C10.5658 44.1901 9.10495 45.9937 7.74227 47.3331C7.06033 48.0034 6.42145 48.5389 5.8493 48.9025C5.26357 49.2746 4.82291 49.418 4.52001 49.418V50.918C5.2411 50.918 5.97244 50.6014 6.65371 50.1685C7.34856 49.7271 8.07168 49.1126 8.79375 48.4029C10.2391 46.9823 11.7542 45.1059 13.1231 43.2538C14.4955 41.3971 15.7367 39.5432 16.6339 38.1551C17.0828 37.4606 17.4463 36.8816 17.698 36.4756C17.8238 36.2727 17.9217 36.1129 17.9883 36.0035C18.0216 35.9489 18.0471 35.9068 18.0644 35.8782C18.073 35.8639 18.0796 35.853 18.0841 35.8456C18.0863 35.8419 18.088 35.839 18.0892 35.8371C18.0898 35.8361 18.0902 35.8353 18.0906 35.8348C18.0907 35.8345 18.0909 35.8343 18.0909 35.8342C18.0911 35.834 18.0911 35.8339 17.448 35.448ZM3.77001 50.168V51H5.27001V50.168H3.77001ZM4.52001 51.75H21.352V50.25H4.52001V51.75ZM22.102 51V50.168H20.602V51H22.102ZM21.352 49.418C19.9716 49.418 18.0157 48.7524 17.1129 46.7976C16.1998 44.8203 16.224 41.241 19.517 35.0984L18.195 34.3896C14.832 40.663 14.5362 44.7957 15.7511 47.4264C16.9763 50.0796 19.5964 50.918 21.352 50.918V49.418ZM18.856 35.494H44.008V33.994H18.856V35.494ZM43.3597 35.1211L49.0557 44.9131L50.3523 44.1589L44.6563 34.3669L43.3597 35.1211ZM49.0646 44.9279C49.6603 45.8999 50.074 46.7033 50.3218 47.3561C50.5743 48.0214 50.6265 48.4589 50.5862 48.7294C50.554 48.9456 50.4639 49.0756 50.2602 49.1841C50.0101 49.3175 49.5745 49.418 48.872 49.418V50.918C49.6735 50.918 50.3979 50.8105 50.9658 50.5079C51.5801 50.1804 51.966 49.6464 52.0698 48.9506C52.1655 48.3091 52.0137 47.5866 51.7242 46.8239C51.43 46.0487 50.9637 45.1561 50.3435 44.1441L49.0646 44.9279ZM48.122 50.168V51H49.622V50.168H48.122ZM48.872 51.75H66.6V50.25H48.872V51.75ZM67.35 51V50.168H65.85V51H67.35ZM66.6 49.418C66.2655 49.418 65.8532 49.2589 65.345 48.8459C64.8404 48.436 64.3082 47.8299 63.7484 47.0679C62.6238 45.5373 61.5016 43.5409 60.3311 41.5901L59.0449 42.3619C60.1784 44.2511 61.3602 46.3507 62.5396 47.9561C63.1318 48.7621 63.7516 49.484 64.3991 50.0101C65.0428 50.5331 65.7826 50.918 66.6 50.918V49.418ZM20.0958 34.1971L31.8078 11.9251L30.4802 11.2269L18.7682 33.4989L20.0958 34.1971ZM30.4881 11.9397L42.8401 34.2118L44.1519 33.4842L31.7999 11.2122L30.4881 11.9397ZM43.496 33.098H19.432V34.598H43.496V33.098ZM87.9295 5.048V5.798H88.6795V5.048H87.9295ZM87.9295 4.216H88.6795V3.466H87.9295V4.216ZM68.8575 4.216V3.466H68.1075V4.216H68.8575ZM68.8575 5.048H68.1075V5.798H68.8575V5.048ZM68.8575 50.168V49.418H68.1075V50.168H68.8575ZM68.8575 51H68.1075V51.75H68.8575V51ZM87.9295 51V51.75H88.6795V51H87.9295ZM87.9295 50.168H88.6795V49.418H87.9295V50.168ZM84.1995 9.656C84.1995 7.75934 84.6307 6.8844 85.1628 6.4392C85.7258 5.96813 86.6009 5.798 87.9295 5.798V4.298C86.5701 4.298 85.2052 4.44786 84.2002 5.2888C83.1643 6.1556 82.6995 7.58466 82.6995 9.656H84.1995ZM88.6795 5.048V4.216H87.1795V5.048H88.6795ZM87.9295 3.466H68.8575V4.966H87.9295V3.466ZM68.1075 4.216V5.048H69.6075V4.216H68.1075ZM68.8575 5.798C70.0884 5.798 70.9733 5.95112 71.5643 6.42508C72.1175 6.86878 72.5875 7.74548 72.5875 9.656H74.0875C74.0875 7.53451 73.5655 6.10721 72.5027 5.25491C71.4777 4.43287 70.1227 4.298 68.8575 4.298V5.798ZM72.5875 9.656V45.56H74.0875V9.656H72.5875ZM72.5875 45.56C72.5875 47.434 72.1198 48.3159 71.5608 48.7697C70.967 49.2518 70.0785 49.418 68.8575 49.418V50.918C70.1325 50.918 71.484 50.7642 72.5062 49.9343C73.5633 49.0761 74.0875 47.654 74.0875 45.56H72.5875ZM68.1075 50.168V51H69.6075V50.168H68.1075ZM68.8575 51.75H87.9295V50.25H68.8575V51.75ZM88.6795 51V50.168H87.1795V51H88.6795ZM87.9295 49.418C86.7085 49.418 85.82 49.2518 85.2262 48.7697C84.6673 48.3159 84.1995 47.434 84.1995 45.56H82.6995C82.6995 47.654 83.2238 49.0761 84.2808 49.9343C85.303 50.7642 86.6545 50.918 87.9295 50.918V49.418ZM84.1995 45.56V9.656H82.6995V45.56H84.1995ZM133.075 28.472L133.016 27.7243L133.078 29.222L133.075 28.472ZM90.259 4.216V3.466H89.509V4.216H90.259ZM90.259 5.048H89.509V5.798H90.259V5.048ZM90.195 50.168V49.418H89.445V50.168H90.195ZM90.195 51H89.445V51.75H90.195V51ZM109.459 51V51.75H110.209V51H109.459ZM109.459 50.168H110.209V49.418H109.459V50.168ZM104.979 28.728V27.978H104.229V28.728H104.979ZM156.947 51V51.75H157.697V51H156.947ZM156.947 50.168H157.697V49.418H156.947V50.168ZM104.979 27.896H104.229V28.646H104.979V27.896ZM133.134 29.2197C134.398 29.1199 138.437 28.5796 142.185 26.7715C145.936 24.9619 149.569 21.7841 149.569 16.376H148.069C148.069 20.9519 145.046 23.7261 141.533 25.4205C138.017 27.1164 134.184 27.6321 133.016 27.7243L133.134 29.2197ZM149.569 16.376C149.569 13.0181 148.582 10.4822 146.995 8.59353C145.419 6.71719 143.297 5.53478 141.11 4.7864C136.76 3.2978 131.95 3.466 130.131 3.466V4.966C132.024 4.966 136.558 4.8142 140.624 6.2056C142.645 6.89722 144.499 7.95481 145.847 9.55847C147.184 11.1498 148.069 13.3339 148.069 16.376H149.569ZM130.131 3.466H90.259V4.966H130.131V3.466ZM89.509 4.216V5.048H91.009V4.216H89.509ZM90.259 5.798C90.9062 5.798 91.8125 5.78316 92.5754 6.23086C93.2537 6.62884 93.989 7.50785 93.989 9.72H95.489C95.489 7.13214 94.5923 5.67516 93.3346 4.93713C92.1616 4.24884 90.8278 4.298 90.259 4.298V5.798ZM93.989 9.72V45.56H95.489V9.72H93.989ZM93.989 45.56C93.989 47.8054 93.3117 48.649 92.686 49.018C91.9634 49.4442 91.0636 49.418 90.195 49.418V50.918C90.9264 50.918 92.2987 50.9878 93.448 50.31C94.6943 49.575 95.489 48.1146 95.489 45.56H93.989ZM89.445 50.168V51H90.945V50.168H89.445ZM90.195 51.75H109.459V50.25H90.195V51.75ZM110.209 51V50.168H108.709V51H110.209ZM109.459 49.418C108.471 49.418 107.613 49.4558 106.94 49.0415C106.365 48.6868 105.729 47.8418 105.729 45.496H104.229C104.229 48.0782 104.937 49.5692 106.154 50.3185C107.273 51.0082 108.655 50.918 109.459 50.918V49.418ZM105.729 45.496V28.728H104.229V45.496H105.729ZM104.979 29.478H126.675V27.978H104.979V29.478ZM126.675 29.478C127.956 29.478 129.136 30.5126 130.325 32.5817C131.487 34.6041 132.492 37.3209 133.54 40.1265C134.574 42.8931 135.649 45.7467 136.939 47.9048C138.208 50.0282 139.846 51.75 142.099 51.75V50.25C140.704 50.25 139.454 49.1878 138.227 47.1352C137.021 45.1173 135.992 42.4029 134.946 39.6015C133.914 36.8391 132.863 33.9879 131.625 31.8343C130.414 29.7274 128.85 27.978 126.675 27.978V29.478ZM142.099 51.75H156.947V50.25H142.099V51.75ZM157.697 51V50.168H156.197V51H157.697ZM156.947 49.418C154.226 49.418 152.459 48.2137 151.046 46.3204C149.589 44.3682 148.561 41.762 147.328 38.9912C146.12 36.2742 144.728 33.4406 142.551 31.3002C140.34 29.1269 137.361 27.7053 133.072 27.722L133.078 29.222C136.981 29.2067 139.578 30.4811 141.499 32.3698C143.454 34.2914 144.75 36.8858 145.958 39.6008C147.141 42.262 148.257 45.0918 149.844 47.2176C151.475 49.4023 153.652 50.918 156.947 50.918V49.418ZM105.729 27.896V9.656H104.229V27.896H105.729ZM105.729 9.656C105.729 8.03914 105.911 7.09017 106.209 6.55935C106.346 6.31565 106.501 6.17289 106.674 6.08272C106.856 5.98829 107.109 5.926 107.475 5.926V4.426C106.945 4.426 106.438 4.51571 105.984 4.75128C105.521 4.99111 105.164 5.35634 104.901 5.82465C104.399 6.71782 104.229 8.00885 104.229 9.656H105.729ZM107.475 5.926H130.131V4.426H107.475V5.926ZM130.131 5.926C132.55 5.926 134.137 7.06396 135.164 8.90866C136.218 10.8043 136.677 13.4567 136.677 16.376H138.177C138.177 13.3433 137.708 10.3957 136.474 8.17933C135.213 5.91204 133.152 4.426 130.131 4.426V5.926ZM136.677 16.376C136.677 21.1661 135.17 23.8276 133.54 25.2994C131.884 26.7949 130.01 27.146 129.171 27.146V28.646C130.317 28.646 132.57 28.1971 134.546 26.4126C136.548 24.6044 138.177 21.5059 138.177 16.376H136.677ZM129.171 27.146H104.979V28.646H129.171V27.146ZM187.83 23.928L188.029 23.2049L188.021 23.2029L188.014 23.2011L187.83 23.928ZM208.758 19.768L208.008 19.7627L208.002 20.518H208.758V19.768ZM209.654 19.768V20.518H210.342L210.401 19.8316L209.654 19.768ZM210.678 7.736L211.425 7.7996L211.47 7.26827L210.983 7.05104L210.678 7.736ZM186.998 3.768L186.98 4.5178L186.989 4.518H186.998V3.768ZM181.942 32.12L182.132 31.3945L182.122 31.3921L181.942 32.12ZM162.742 35.96L163.491 35.9347L163.467 35.21H162.742V35.96ZM161.846 35.96V35.21H161.17L161.1 35.8813L161.846 35.96ZM160.502 48.696L159.756 48.6173L159.694 49.2049L160.25 49.4027L160.502 48.696ZM183.67 51.448L183.693 50.6984L183.681 50.698H183.67V51.448ZM188.014 23.2011C183.8 22.1312 179.028 21.1439 175.273 19.5572C171.486 17.9567 169.124 15.9113 169.124 12.92H167.624C167.624 16.9047 170.829 19.3073 174.69 20.9388C178.583 22.5841 183.539 23.6128 187.645 24.6549L188.014 23.2011ZM169.124 12.92C169.124 11.2758 169.804 10.013 170.951 9.00802C172.12 7.98297 173.779 7.22633 175.691 6.68125C179.513 5.59142 184.098 5.414 187.062 5.414V3.914C184.073 3.914 179.314 4.08857 175.28 5.23874C173.264 5.81366 171.367 6.64902 169.962 7.87997C168.535 9.13102 167.624 10.7882 167.624 12.92H169.124ZM187.062 5.414C192.276 5.414 197.572 6.90002 201.534 9.46184C205.499 12.025 208.037 15.5933 208.008 19.7627L209.507 19.7733C209.542 14.9187 206.576 10.935 202.349 8.20216C198.119 5.46798 192.535 3.914 187.062 3.914V5.414ZM208.758 20.518H209.654V19.018H208.758V20.518ZM210.401 19.8316L211.425 7.7996L209.93 7.6724L208.906 19.7044L210.401 19.8316ZM210.678 7.736C210.983 7.05104 210.983 7.05094 210.983 7.05081C210.982 7.05075 210.982 7.05062 210.982 7.05049C210.981 7.05025 210.981 7.04995 210.98 7.04958C210.978 7.04886 210.976 7.04789 210.973 7.04669C210.968 7.0443 210.96 7.04096 210.95 7.03671C210.931 7.02823 210.903 7.01611 210.866 7.0006C210.793 6.96958 210.685 6.92501 210.544 6.86883C210.262 6.75647 209.847 6.59766 209.304 6.40795C208.218 6.02855 206.62 5.52547 204.559 5.02331C200.437 4.019 194.457 3.018 186.998 3.018V4.518C194.322 4.518 200.182 5.50099 204.204 6.48069C206.215 6.97052 207.765 7.45945 208.809 7.82405C209.331 8.00634 209.726 8.15752 209.989 8.26216C210.12 8.31448 210.218 8.35516 210.282 8.38227C210.314 8.39582 210.338 8.40599 210.353 8.41251C210.36 8.41578 210.366 8.41813 210.369 8.41955C210.37 8.42025 210.371 8.42073 210.372 8.42096C210.372 8.42108 210.372 8.42114 210.372 8.42114C210.372 8.42113 210.372 8.42109 210.372 8.42109C210.372 8.42103 210.372 8.42095 210.678 7.736ZM186.998 3.768C187.015 3.0182 187.014 3.01819 187.014 3.01818C187.014 3.01817 187.013 3.01816 187.013 3.01815C187.012 3.01813 187.01 3.01809 187.008 3.01805C187.004 3.01797 186.999 3.01786 186.992 3.01772C186.977 3.01745 186.956 3.01708 186.929 3.01667C186.874 3.01586 186.794 3.01489 186.69 3.01425C186.481 3.01295 186.177 3.01293 185.792 3.01794C185.02 3.02794 183.921 3.05805 182.602 3.13839C179.968 3.29885 176.444 3.66059 172.91 4.46888C169.388 5.27464 165.794 6.53762 163.064 8.53586C160.311 10.5516 158.408 13.3451 158.408 17.144H159.908C159.908 13.9348 161.484 11.5524 163.951 9.74613C166.441 7.92238 169.807 6.71736 173.245 5.93112C176.671 5.14741 180.107 4.79315 182.693 4.63561C183.984 4.55694 185.06 4.52755 185.811 4.51781C186.186 4.51294 186.481 4.51298 186.68 4.51422C186.78 4.51484 186.856 4.51575 186.906 4.51651C186.932 4.51688 186.951 4.51722 186.963 4.51745C186.969 4.51757 186.974 4.51766 186.977 4.51772C186.978 4.51775 186.979 4.51777 186.98 4.51779C186.98 4.51779 186.98 4.5178 186.98 4.5178C186.98 4.5178 186.98 4.5178 186.998 3.768ZM158.408 17.144C158.408 20.0611 159.29 22.3919 160.791 24.2641C162.281 26.1218 164.347 27.4892 166.66 28.5534C171.249 30.6647 177.075 31.6842 181.761 32.8479L182.122 31.3921C177.272 30.1878 171.706 29.2233 167.287 27.1906C165.096 26.1828 163.254 24.9382 161.962 23.3259C160.681 21.7281 159.908 19.7309 159.908 17.144H158.408ZM181.751 32.8454C186.311 34.0421 191.306 35.1435 195.195 36.6739C197.135 37.4374 198.732 38.2832 199.833 39.2529C200.92 40.2103 201.48 41.2443 201.48 42.424H202.98C202.98 40.6917 202.131 39.2777 200.824 38.1271C199.531 36.9888 197.748 36.0666 195.744 35.2781C191.745 33.7045 186.596 32.5659 182.132 31.3946L181.751 32.8454ZM201.48 42.424C201.48 44.143 200.331 45.9497 197.45 47.3671C194.569 48.7848 190.073 49.738 183.734 49.738V51.238C190.194 51.238 194.946 50.2712 198.113 48.7129C201.28 47.1543 202.98 44.929 202.98 42.424H201.48ZM183.734 49.738C178.724 49.738 173.7 48.499 169.914 46.1395C166.141 43.7882 163.641 40.3605 163.491 35.9347L161.992 35.9853C162.162 41.0315 165.038 44.8678 169.121 47.4125C173.191 49.949 178.503 51.238 183.734 51.238V49.738ZM162.742 35.21H161.846V36.71H162.742V35.21ZM161.1 35.8813L159.756 48.6173L161.247 48.7747L162.591 36.0387L161.1 35.8813ZM160.502 48.696C160.25 49.4027 160.251 49.4028 160.251 49.4029C160.251 49.4029 160.251 49.403 160.252 49.4031C160.252 49.4033 160.253 49.4035 160.254 49.4038C160.255 49.4044 160.257 49.4051 160.26 49.4059C160.264 49.4077 160.271 49.41 160.28 49.413C160.297 49.419 160.323 49.4276 160.355 49.4384C160.42 49.4602 160.516 49.4913 160.642 49.5304C160.893 49.6086 161.266 49.719 161.759 49.8507C162.746 50.114 164.217 50.4626 166.17 50.8104C170.077 51.506 175.913 52.198 183.67 52.198V50.698C176.002 50.698 170.254 50.014 166.433 49.3336C164.522 48.9934 163.093 48.654 162.146 48.4013C161.672 48.275 161.319 48.1704 161.087 48.0981C160.971 48.062 160.885 48.034 160.829 48.0154C160.801 48.0061 160.781 47.9992 160.768 47.9948C160.762 47.9926 160.757 47.991 160.755 47.9901C160.754 47.9896 160.753 47.9893 160.752 47.9892C160.752 47.9891 160.752 47.9891 160.752 47.9891C160.752 47.9891 160.752 47.9892 160.752 47.9892C160.752 47.9892 160.753 47.9893 160.502 48.696ZM183.67 51.448C183.646 52.1976 183.646 52.1976 183.647 52.1977C183.647 52.1977 183.647 52.1977 183.648 52.1977C183.649 52.1977 183.651 52.1978 183.653 52.1978C183.656 52.1979 183.662 52.1981 183.669 52.1983C183.684 52.1987 183.705 52.1993 183.733 52.2C183.789 52.2013 183.871 52.2031 183.978 52.2048C184.191 52.2082 184.502 52.2116 184.897 52.2111C185.686 52.2102 186.812 52.1943 188.163 52.1343C190.86 52.0143 194.469 51.7177 198.086 51.008C201.691 50.3007 205.369 49.1714 208.163 47.3514C210.977 45.5182 212.964 42.9308 212.964 39.352H211.464C211.464 42.2692 209.882 44.4418 207.344 46.0946C204.786 47.7606 201.328 48.8433 197.797 49.536C194.278 50.2263 190.751 50.5177 188.096 50.6357C186.771 50.6947 185.667 50.7103 184.895 50.7111C184.51 50.7116 184.207 50.7083 184.002 50.705C183.9 50.7033 183.822 50.7016 183.769 50.7004C183.743 50.6998 183.724 50.6992 183.711 50.6989C183.705 50.6987 183.7 50.6986 183.697 50.6985C183.695 50.6984 183.694 50.6984 183.694 50.6984C183.693 50.6984 183.693 50.6984 183.693 50.6984C183.693 50.6984 183.693 50.6984 183.67 51.448ZM212.964 39.352C212.964 33.8298 208.183 30.2744 202.946 27.9085C197.652 25.5167 191.462 24.15 188.029 23.2049L187.63 24.6511C191.173 25.626 197.175 26.9473 202.329 29.2755C207.54 31.6296 211.464 34.8262 211.464 39.352H212.964ZM274.849 5.048V5.798H275.599V5.048H274.849ZM274.849 4.216H275.599V3.466H274.849V4.216ZM255.777 4.216V3.466H255.027V4.216H255.777ZM255.777 5.048H255.027V5.798H255.777V5.048ZM260.257 27.128V27.878H261.007V27.128H260.257ZM229.025 27.128H228.275V27.878H229.025V27.128ZM233.505 5.048V5.798H234.255V5.048H233.505ZM233.505 4.216H234.255V3.466H233.505V4.216ZM214.433 4.216V3.466H213.683V4.216H214.433ZM214.433 5.048H213.683V5.798H214.433V5.048ZM214.433 50.168V49.418H213.683V50.168H214.433ZM214.433 51H213.683V51.75H214.433V51ZM233.505 51V51.75H234.255V51H233.505ZM233.505 50.168H234.255V49.418H233.505V50.168ZM229.025 28.024V27.274H228.275V28.024H229.025ZM260.257 28.024H261.007V27.274H260.257V28.024ZM255.777 50.168V49.418H255.027V50.168H255.777ZM255.777 51H255.027V51.75H255.777V51ZM274.849 51V51.75H275.599V51H274.849ZM274.849 50.168H275.599V49.418H274.849V50.168ZM275.599 5.048V4.216H274.099V5.048H275.599ZM274.849 3.466H255.777V4.966H274.849V3.466ZM255.027 4.216V5.048H256.527V4.216H255.027ZM255.777 5.798C257.007 5.798 257.892 5.95112 258.483 6.42508C259.037 6.86878 259.507 7.74548 259.507 9.656H261.007C261.007 7.53451 260.484 6.10721 259.422 5.25491C258.397 4.43287 257.042 4.298 255.777 4.298V5.798ZM259.507 9.656V27.128H261.007V9.656H259.507ZM260.257 26.378H229.025V27.878H260.257V26.378ZM229.775 27.128V9.656H228.275V27.128H229.775ZM229.775 9.656C229.775 7.75934 230.206 6.8844 230.738 6.4392C231.301 5.96813 232.176 5.798 233.505 5.798V4.298C232.145 4.298 230.78 4.44786 229.775 5.2888C228.739 6.1556 228.275 7.58466 228.275 9.656H229.775ZM234.255 5.048V4.216H232.755V5.048H234.255ZM233.505 3.466H214.433V4.966H233.505V3.466ZM213.683 4.216V5.048H215.183V4.216H213.683ZM214.433 5.798C215.663 5.798 216.548 5.95112 217.139 6.42508C217.693 6.86878 218.163 7.74548 218.163 9.656H219.663C219.663 7.53451 219.14 6.10721 218.078 5.25491C217.053 4.43287 215.698 4.298 214.433 4.298V5.798ZM218.163 9.656V45.56H219.663V9.656H218.163ZM218.163 45.56C218.163 47.434 217.695 48.3159 217.136 48.7697C216.542 49.2518 215.653 49.418 214.433 49.418V50.918C215.708 50.918 217.059 50.7642 218.081 49.9343C219.138 49.0761 219.663 47.654 219.663 45.56H218.163ZM213.683 50.168V51H215.183V50.168H213.683ZM214.433 51.75H233.505V50.25H214.433V51.75ZM234.255 51V50.168H232.755V51H234.255ZM233.505 49.418C232.284 49.418 231.395 49.2518 230.801 48.7697C230.242 48.3159 229.775 47.434 229.775 45.56H228.275C228.275 47.654 228.799 49.0761 229.856 49.9343C230.878 50.7642 232.229 50.918 233.505 50.918V49.418ZM229.775 45.56V28.024H228.275V45.56H229.775ZM229.025 28.774H260.257V27.274H229.025V28.774ZM259.507 28.024V45.56H261.007V28.024H259.507ZM259.507 45.56C259.507 47.434 259.039 48.3159 258.48 48.7697C257.886 49.2518 256.997 49.418 255.777 49.418V50.918C257.052 50.918 258.403 50.7642 259.425 49.9343C260.482 49.0761 261.007 47.654 261.007 45.56H259.507ZM255.027 50.168V51H256.527V50.168H255.027ZM255.777 51.75H274.849V50.25H255.777V51.75ZM275.599 51V50.168H274.099V51H275.599ZM274.849 49.418C273.628 49.418 272.739 49.2518 272.145 48.7697C271.586 48.3159 271.119 47.434 271.119 45.56H269.619C269.619 47.654 270.143 49.0761 271.2 49.9343C272.222 50.7642 273.573 50.918 274.849 50.918V49.418ZM271.119 45.56V9.656H269.619V45.56H271.119ZM271.119 9.656C271.119 7.75934 271.55 6.8844 272.082 6.4392C272.645 5.96813 273.52 5.798 274.849 5.798V4.298C273.489 4.298 272.124 4.44786 271.119 5.2888C270.083 6.1556 269.619 7.58466 269.619 9.656H271.119ZM319.899 4.216V3.466H319.149V4.216H319.899ZM319.899 5.048H319.149V5.798H319.899V5.048ZM318.875 19.64L319.434 20.139L319.436 20.1376L318.875 19.64ZM311.003 28.472L310.419 28.9433L310.974 29.6307L311.562 28.971L311.003 28.472ZM294.043 7.48L294.626 7.00866L294.617 6.99811L294.608 6.98787L294.043 7.48ZM295.835 5.048V5.798H296.585V5.048H295.835ZM295.835 4.216H296.585V3.466H295.835V4.216ZM277.083 4.216V3.466H276.333V4.216H277.083ZM277.083 5.112H276.333V5.862H277.083V5.112ZM283.035 10.04L282.443 10.501L282.447 10.5068L282.452 10.5126L283.035 10.04ZM301.211 32.44H301.961V32.174L301.793 31.9674L301.211 32.44ZM296.731 50.168V49.418H295.981V50.168H296.731ZM296.731 51H295.981V51.75H296.731V51ZM315.803 51V51.75H316.553V51H315.803ZM315.803 50.168H316.553V49.418H315.803V50.168ZM311.323 45.56L310.573 45.557V45.56H311.323ZM311.387 29.368L310.826 28.8695L310.638 29.0814L310.637 29.365L311.387 29.368ZM320.155 19.512L319.597 19.0107L319.594 19.0135L320.155 19.512ZM336.411 5.048V5.798H337.161V5.048H336.411ZM336.411 4.216H337.161V3.466H336.411V4.216ZM319.149 4.216V5.048H320.649V4.216H319.149ZM319.899 5.798C322.108 5.798 323.256 6.3093 323.806 6.94536C324.339 7.56163 324.484 8.50546 324.155 9.83553C323.49 12.5177 321.056 16.049 318.313 19.1424L319.436 20.1376C322.197 17.023 324.851 13.2583 325.61 10.1965C325.993 8.65454 325.934 7.11436 324.941 5.96463C323.965 4.8347 322.265 4.298 319.899 4.298V5.798ZM318.315 19.141L310.443 27.973L311.562 28.971L319.434 20.139L318.315 19.141ZM311.586 28.0007L294.626 7.00866L293.459 7.95134L310.419 28.9433L311.586 28.0007ZM294.608 6.98787C294.302 6.63503 294.107 6.35996 294.009 6.15549C293.906 5.94052 293.977 5.9498 293.932 6.04232C293.893 6.12119 293.877 6.03787 294.22 5.94501C294.545 5.85732 295.06 5.798 295.835 5.798V4.298C295.009 4.298 294.34 4.35868 293.829 4.49699C293.336 4.63013 292.832 4.87881 292.585 5.38168C292.332 5.8982 292.475 6.42348 292.656 6.80251C292.842 7.19204 293.143 7.58897 293.477 7.97213L294.608 6.98787ZM296.585 5.048V4.216H295.085V5.048H296.585ZM295.835 3.466H277.083V4.966H295.835V3.466ZM276.333 4.216V5.112H277.833V4.216H276.333ZM277.083 5.862C277.363 5.862 277.834 6.04697 278.472 6.4955C279.078 6.92157 279.721 7.50315 280.318 8.1046C280.913 8.70272 281.445 9.30338 281.83 9.75595C282.022 9.98175 282.177 10.1695 282.283 10.3003C282.335 10.3656 282.376 10.4166 282.403 10.4508C282.417 10.468 282.427 10.4809 282.434 10.4894C282.437 10.4936 282.44 10.4967 282.441 10.4987C282.442 10.4996 282.442 10.5003 282.443 10.5007C282.443 10.5009 282.443 10.501 282.443 10.5011C282.443 10.5011 282.443 10.5011 282.443 10.5011C282.443 10.501 282.443 10.501 283.035 10.04C283.626 9.57901 283.626 9.57891 283.626 9.5788C283.626 9.57874 283.626 9.5786 283.626 9.57848C283.625 9.57822 283.625 9.57789 283.625 9.57749C283.624 9.57669 283.623 9.57558 283.622 9.57419C283.62 9.5714 283.617 9.56744 283.613 9.56234C283.605 9.55215 283.593 9.53742 283.578 9.51846C283.548 9.48054 283.504 9.42566 283.448 9.35624C283.336 9.21744 283.174 9.02024 282.973 8.78405C282.572 8.31261 282.012 7.68127 281.383 7.0474C280.756 6.41684 280.043 5.76643 279.335 5.2685C278.659 4.79302 277.858 4.362 277.083 4.362V5.862ZM282.452 10.5126L300.628 32.9126L301.793 31.9674L283.617 9.56743L282.452 10.5126ZM300.461 32.44V45.56H301.961V32.44H300.461ZM300.461 45.56C300.461 47.4192 299.969 48.3055 299.391 48.7652C298.777 49.2544 297.88 49.418 296.731 49.418V50.918C297.949 50.918 299.292 50.7616 300.326 49.9388C301.396 49.0865 301.961 47.6688 301.961 45.56H300.461ZM295.981 50.168V51H297.481V50.168H295.981ZM296.731 51.75H315.803V50.25H296.731V51.75ZM316.553 51V50.168H315.053V51H316.553ZM315.803 49.418C314.653 49.418 313.756 49.2544 313.142 48.7652C312.564 48.3055 312.073 47.4192 312.073 45.56H310.573C310.573 47.6688 311.137 49.0865 312.207 49.9388C313.241 50.7616 314.584 50.918 315.803 50.918V49.418ZM312.073 45.563L312.137 29.371L310.637 29.365L310.573 45.557L312.073 45.563ZM311.947 29.8665L320.715 20.0105L319.594 19.0135L310.826 28.8695L311.947 29.8665ZM320.712 20.0133C322.693 17.8094 326.006 14.21 329.185 11.1657C330.777 9.64193 332.319 8.27195 333.636 7.28764C334.294 6.79497 334.88 6.41124 335.375 6.1538C335.89 5.88633 336.227 5.798 336.411 5.798V4.298C335.858 4.298 335.259 4.52367 334.684 4.82295C334.089 5.13226 333.431 5.56803 332.737 6.08636C331.35 7.12405 329.756 8.54207 328.148 10.0823C324.927 13.166 321.584 16.7986 319.597 19.0107L320.712 20.0133ZM337.161 5.048V4.216H335.661V5.048H337.161ZM336.411 3.466H319.899V4.966H336.411V3.466ZM381.55 28.472L381.491 27.7243L381.553 29.222L381.55 28.472ZM338.734 4.216V3.466H337.984V4.216H338.734ZM338.734 5.048H337.984V5.798H338.734V5.048ZM338.67 50.168V49.418H337.92V50.168H338.67ZM338.67 51H337.92V51.75H338.67V51ZM357.934 51V51.75H358.684V51H357.934ZM357.934 50.168H358.684V49.418H357.934V50.168ZM353.454 28.728V27.978H352.704V28.728H353.454ZM405.422 51V51.75H406.172V51H405.422ZM405.422 50.168H406.172V49.418H405.422V50.168ZM353.454 27.896H352.704V28.646H353.454V27.896ZM381.609 29.2197C382.873 29.1199 386.912 28.5796 390.66 26.7715C394.411 24.9619 398.044 21.7841 398.044 16.376H396.544C396.544 20.9519 393.521 23.7261 390.008 25.4205C386.492 27.1164 382.659 27.6321 381.491 27.7243L381.609 29.2197ZM398.044 16.376C398.044 13.0181 397.057 10.4822 395.47 8.59353C393.894 6.71719 391.772 5.53478 389.585 4.7864C385.235 3.2978 380.425 3.466 378.606 3.466V4.966C380.499 4.966 385.033 4.8142 389.099 6.2056C391.12 6.89722 392.974 7.95481 394.322 9.55847C395.659 11.1498 396.544 13.3339 396.544 16.376H398.044ZM378.606 3.466H338.734V4.966H378.606V3.466ZM337.984 4.216V5.048H339.484V4.216H337.984ZM338.734 5.798C339.381 5.798 340.287 5.78316 341.05 6.23086C341.729 6.62884 342.464 7.50785 342.464 9.72H343.964C343.964 7.13214 343.067 5.67516 341.81 4.93713C340.637 4.24884 339.303 4.298 338.734 4.298V5.798ZM342.464 9.72V45.56H343.964V9.72H342.464ZM342.464 45.56C342.464 47.8054 341.787 48.649 341.161 49.018C340.438 49.4442 339.539 49.418 338.67 49.418V50.918C339.401 50.918 340.774 50.9878 341.923 50.31C343.169 49.575 343.964 48.1146 343.964 45.56H342.464ZM337.92 50.168V51H339.42V50.168H337.92ZM338.67 51.75H357.934V50.25H338.67V51.75ZM358.684 51V50.168H357.184V51H358.684ZM357.934 49.418C356.946 49.418 356.088 49.4558 355.415 49.0415C354.84 48.6868 354.204 47.8418 354.204 45.496H352.704C352.704 48.0782 353.412 49.5692 354.629 50.3185C355.748 51.0082 357.13 50.918 357.934 50.918V49.418ZM354.204 45.496V28.728H352.704V45.496H354.204ZM353.454 29.478H375.15V27.978H353.454V29.478ZM375.15 29.478C376.431 29.478 377.611 30.5126 378.8 32.5817C379.962 34.6041 380.967 37.3209 382.015 40.1265C383.049 42.8931 384.124 45.7467 385.414 47.9048C386.683 50.0282 388.321 51.75 390.574 51.75V50.25C389.179 50.25 387.929 49.1878 386.702 47.1352C385.496 45.1173 384.467 42.4029 383.421 39.6015C382.389 36.8391 381.338 33.9879 380.1 31.8343C378.889 29.7274 377.325 27.978 375.15 27.978V29.478ZM390.574 51.75H405.422V50.25H390.574V51.75ZM406.172 51V50.168H404.672V51H406.172ZM405.422 49.418C402.701 49.418 400.934 48.2137 399.521 46.3204C398.064 44.3682 397.036 41.762 395.803 38.9912C394.595 36.2742 393.203 33.4406 391.026 31.3002C388.815 29.1269 385.836 27.7053 381.547 27.722L381.553 29.222C385.456 29.2067 388.053 30.4811 389.974 32.3698C391.929 34.2914 393.225 36.8858 394.433 39.6008C395.616 42.262 396.732 45.0918 398.319 47.2176C399.95 49.4023 402.127 50.918 405.422 50.918V49.418ZM354.204 27.896V9.656H352.704V27.896H354.204ZM354.204 9.656C354.204 8.03914 354.386 7.09017 354.684 6.55935C354.821 6.31565 354.976 6.17289 355.149 6.08272C355.331 5.98829 355.584 5.926 355.95 5.926V4.426C355.42 4.426 354.913 4.51571 354.459 4.75128C353.996 4.99111 353.639 5.35634 353.376 5.82465C352.874 6.71782 352.704 8.00885 352.704 9.656H354.204ZM355.95 5.926H378.606V4.426H355.95V5.926ZM378.606 5.926C381.025 5.926 382.612 7.06396 383.639 8.90866C384.693 10.8043 385.152 13.4567 385.152 16.376H386.652C386.652 13.3433 386.183 10.3957 384.949 8.17933C383.688 5.91204 381.627 4.426 378.606 4.426V5.926ZM385.152 16.376C385.152 21.1661 383.645 23.8276 382.015 25.2994C380.359 26.7949 378.485 27.146 377.646 27.146V28.646C378.791 28.646 381.045 28.1971 383.021 26.4126C385.023 24.6044 386.652 21.5059 386.652 16.376H385.152ZM377.646 27.146H353.454V28.646H377.646V27.146ZM462.48 36.6V35.85H461.907L461.757 36.4033L462.48 36.6ZM422.16 27.896V27.146H421.41V27.896H422.16ZM439.696 27.896L439.724 27.1465L439.71 27.146H439.696V27.896ZM450.512 36.664H449.762V37.414H450.512V36.664ZM451.536 36.664V37.414H452.286V36.664H451.536ZM451.536 17.976H452.286V17.226H451.536V17.976ZM450.512 17.976V17.226H449.762V17.976H450.512ZM439.824 27V27.75H439.838L439.851 27.7495L439.824 27ZM422.16 27H421.41V27.75H422.16V27ZM461.584 17.016L460.89 17.2985L461.08 17.766H461.584V17.016ZM462.672 17.016V17.766H463.522L463.417 16.923L462.672 17.016ZM461.072 4.216L461.817 4.12297L461.735 3.466H461.072V4.216ZM407.632 4.216V3.466H406.882V4.216H407.632ZM407.632 5.048H406.882V5.798H407.632V5.048ZM407.632 50.168V49.418H406.882V50.168H407.632ZM407.632 51H406.882V51.75H407.632V51ZM462.8 51V51.75H463.515L463.55 51.0366L462.8 51ZM463.504 36.6L464.254 36.6366L464.292 35.85H463.504V36.6ZM461.757 36.4033C460.993 39.2143 459.141 42.4666 456.714 45.0102C454.275 47.566 451.37 49.29 448.528 49.29V50.79C451.959 50.79 455.23 48.738 457.799 46.0458C460.38 43.3414 462.368 39.8737 463.204 36.7967L461.757 36.4033ZM448.528 49.29H426.064V50.79H448.528V49.29ZM426.064 49.29C425.364 49.29 424.574 49.041 423.968 48.492C423.379 47.9586 422.91 47.0954 422.91 45.752H421.41C421.41 47.4806 422.03 48.7614 422.961 49.604C423.875 50.431 425.037 50.79 426.064 50.79V49.29ZM422.91 45.752V27.896H421.41V45.752H422.91ZM422.16 28.646H439.696V27.146H422.16V28.646ZM439.669 28.6455C442.142 28.7349 444.695 29.7995 446.627 31.3525C448.575 32.919 449.762 34.8701 449.762 36.664H451.262C451.262 34.2339 449.698 31.897 447.566 30.1835C445.418 28.4565 442.563 27.2491 439.724 27.1465L439.669 28.6455ZM450.512 37.414H451.536V35.914H450.512V37.414ZM452.286 36.664V17.976H450.786V36.664H452.286ZM451.536 17.226H450.512V18.726H451.536V17.226ZM449.762 17.976C449.762 19.792 448.631 21.8099 446.744 23.431C444.87 25.0401 442.357 26.1612 439.798 26.2505L439.851 27.7495C442.796 27.6468 445.627 26.3679 447.721 24.569C449.802 22.7821 451.262 20.384 451.262 17.976H449.762ZM439.824 26.25H422.16V27.75H439.824V26.25ZM422.91 27V9.464H421.41V27H422.91ZM422.91 9.464C422.91 8.4432 423.146 7.54172 423.594 6.91709C424.018 6.32554 424.669 5.926 425.68 5.926V4.426C424.196 4.426 423.087 5.05046 422.375 6.04291C421.687 7.00228 421.41 8.2448 421.41 9.464H422.91ZM425.68 5.926H446.352V4.426H425.68V5.926ZM446.352 5.926C449.191 5.926 452.245 7.32484 454.911 9.49382C457.571 11.6573 459.759 14.5185 460.89 17.2985L462.279 16.7335C461.042 13.6895 458.686 10.6307 455.858 8.33017C453.036 6.03515 449.658 4.426 446.352 4.426V5.926ZM461.584 17.766H462.672V16.266H461.584V17.766ZM463.417 16.923L461.817 4.12297L460.328 4.30903L461.928 17.109L463.417 16.923ZM461.072 3.466H407.632V4.966H461.072V3.466ZM406.882 4.216V5.048H408.382V4.216H406.882ZM407.632 5.798C408.3 5.798 409.244 5.83918 410.017 6.31183C410.718 6.74047 411.426 7.62068 411.426 9.656H412.926C412.926 7.21132 412.035 5.78753 410.8 5.03217C409.637 4.32081 408.309 4.298 407.632 4.298V5.798ZM411.426 9.656V45.56H412.926V9.656H411.426ZM411.426 45.56C411.426 47.2664 410.932 48.1719 410.317 48.6758C409.673 49.2039 408.744 49.418 407.632 49.418V50.918C408.889 50.918 410.232 50.6841 411.268 49.8362C412.333 48.9641 412.926 47.5656 412.926 45.56H411.426ZM406.882 50.168V51H408.382V50.168H406.882ZM407.632 51.75H462.8V50.25H407.632V51.75ZM463.55 51.0366L464.254 36.6366L462.755 36.5634L462.051 50.9634L463.55 51.0366ZM463.504 35.85H462.48V37.35H463.504V35.85Z" fill="black"/>
</g>
<defs>
<clipPath id="clip0_289_38">
<rect width="466" height="57" fill="white"/>
</clipPath>
</defs>
</svg>
