<svg width="151" height="17" viewBox="0 0 151 17" fill="none" xmlns="http://www.w3.org/2000/svg">
<g clip-path="url(#clip0_272_8)">
<rect width="151" height="17" fill="white"/>
<g filter="url(#filter0_d_272_8)">
<path d="M18.84 13.18L12.06 1.08C12.06 1.08 10.82 2.22 8.52 2.36C9.5 2.86 9.72 3.44 9.72 3.44L5.64 11.14C5.64 11.14 2.88 15.74 1.6 15.74V16H6.86V15.74C5.88 15.74 4 14.8 6.08 10.92H13.94L15.72 13.98C16.48 15.22 16.4 15.74 15.46 15.74V16H21V15.74C20.28 15.74 19.56 14.38 18.84 13.18ZM6.26 10.64L9.92 3.68L13.78 10.64H6.26ZM26.7655 3.08C26.7655 1.84 27.3255 1.64 28.1655 1.64V1.38H22.2055V1.64C22.9855 1.64 23.6055 1.82 23.6055 3.08V14.3C23.6055 15.54 22.9855 15.74 22.2055 15.74V16H28.1655V15.74C27.3855 15.74 26.7655 15.54 26.7655 14.3V3.08ZM42.7734 8.96C43.5334 8.9 47.6934 8.3 47.6934 5.18C47.6934 1.18 43.0134 1.38 41.8534 1.38H29.3934V1.64C29.7734 1.64 30.7934 1.6 30.7934 3.1V14.3C30.7934 15.8 29.8734 15.74 29.3734 15.74V16H35.3934V15.74C34.8334 15.74 33.9934 15.82 33.9934 14.28V9.04H40.7734C42.9334 9.04 43.3134 16 45.5934 16H50.2334V15.74C46.4734 15.74 47.8934 8.94 42.7734 8.96ZM33.9934 8.78V3.08C33.9934 2.06 34.2134 1.68 34.7734 1.68H41.8534C43.5534 1.68 44.1334 3.32 44.1334 5.18C44.1334 8.28 42.1734 8.78 41.5534 8.78H33.9934ZM60.3842 7.54C57.7842 6.88 54.3042 6.28 54.3042 4.1C54.3042 1.74 58.2842 1.52 60.1442 1.52C63.4842 1.52 66.9442 3.42 66.9242 6.24H67.2042L67.5242 2.48C67.5242 2.48 64.7442 1.24 60.1242 1.24C60.1242 1.24 51.4242 1.04 51.4242 5.42C51.4242 8.86 55.5642 9.36 58.5442 10.1C61.3642 10.84 64.8842 11.5 64.8842 13.32C64.8842 14.64 63.1042 15.84 59.1042 15.84C55.9042 15.84 52.6442 14.26 52.5442 11.3H52.2642L51.8442 15.28C51.8442 15.28 54.2642 16.14 59.0842 16.14C59.0842 16.14 68.0042 16.42 68.0042 12.36C68.0042 9.22 62.5642 8.14 60.3842 7.54ZM88.0777 1.64V1.38H82.1177V1.64C82.8977 1.64 83.5177 1.82 83.5177 3.08V8.54H73.7577V3.08C73.7577 1.84 74.3177 1.64 75.1577 1.64V1.38H69.1977V1.64C69.9777 1.64 70.5977 1.82 70.5977 3.08V14.3C70.5977 15.54 69.9777 15.74 69.1977 15.74V16H75.1577V15.74C74.3777 15.74 73.7577 15.54 73.7577 14.3V8.82H83.5177V14.3C83.5177 15.54 82.8977 15.74 82.1177 15.74V16H88.0777V15.74C87.2977 15.74 86.6777 15.54 86.6777 14.3V3.08C86.6777 1.84 87.2377 1.64 88.0777 1.64ZM102.656 1.38V1.64C105.516 1.64 104.056 4.26 102.336 6.2L99.8758 8.96L94.5758 2.4C94.1758 1.94 94.1358 1.64 95.1358 1.64V1.38H89.2758V1.66C89.9358 1.66 91.1358 3.2 91.1358 3.2L96.8158 10.2V14.3C96.8158 15.54 96.1558 15.74 95.4158 15.74V16H101.376V15.74C100.636 15.74 99.9758 15.54 99.9758 14.3L99.9958 9.24L102.736 6.16C103.976 4.78 106.896 1.64 107.816 1.64V1.38H102.656ZM122.422 8.96C123.182 8.9 127.342 8.3 127.342 5.18C127.342 1.18 122.662 1.38 121.502 1.38H109.042V1.64C109.422 1.64 110.442 1.6 110.442 3.1V14.3C110.442 15.8 109.522 15.74 109.022 15.74V16H115.042V15.74C114.482 15.74 113.642 15.82 113.642 14.28V9.04H120.422C122.582 9.04 122.962 16 125.242 16H129.882V15.74C126.122 15.74 127.542 8.94 122.422 8.96ZM113.642 8.78V3.08C113.642 2.06 113.862 1.68 114.422 1.68H121.502C123.202 1.68 123.782 3.32 123.782 5.18C123.782 8.28 121.822 8.78 121.202 8.78H113.642ZM148.213 11.5C147.713 13.34 145.813 15.7 143.853 15.7H136.833C136.293 15.7 135.613 15.32 135.613 14.36V8.78H141.093C142.753 8.84 144.473 10.2 144.473 11.52H144.793V5.68H144.473C144.473 7 142.853 8.44 141.133 8.5H135.613V3.02C135.613 2.32 135.933 1.68 136.713 1.68H143.173C145.093 1.68 147.193 3.56 147.933 5.38H148.273L147.773 1.38H131.073V1.64C131.493 1.64 132.493 1.68 132.493 3.08V14.3C132.493 15.46 131.813 15.74 131.073 15.74V16H148.313L148.533 11.5H148.213Z" fill="black"/>
<path d="M18.84 13.18L18.4038 13.4244L18.4074 13.4309L18.4113 13.4372L18.84 13.18ZM12.06 1.08L12.4962 0.835588L12.1871 0.283958L11.7216 0.711915L12.06 1.08ZM8.52 2.36L8.48962 1.86092L6.65992 1.9723L8.29276 2.80538L8.52 2.36ZM9.72 3.44L10.1618 3.6741L10.2677 3.4742L10.1875 3.26267L9.72 3.44ZM5.64 11.14L6.06875 11.3972L6.07559 11.3858L6.08181 11.3741L5.64 11.14ZM1.6 15.74V15.24H1.1V15.74H1.6ZM1.6 16H1.1V16.5H1.6V16ZM6.86 16V16.5H7.36V16H6.86ZM6.86 15.74H7.36V15.24H6.86V15.74ZM6.08 10.92V10.42H5.78073L5.63933 10.6838L6.08 10.92ZM13.94 10.92L14.3722 10.6686L14.2276 10.42H13.94V10.92ZM15.72 13.98L15.2877 14.2315L15.2937 14.2413L15.72 13.98ZM15.46 15.74V15.24H14.96V15.74H15.46ZM15.46 16H14.96V16.5H15.46V16ZM21 16V16.5H21.5V16H21ZM21 15.74H21.5V15.24H21V15.74ZM6.26 10.64L5.81746 10.4073L5.43215 11.14H6.26V10.64ZM9.92 3.68L10.3573 3.4375L9.9083 2.62798L9.47746 3.44728L9.92 3.68ZM13.78 10.64V11.14H14.629L14.2173 10.3975L13.78 10.64ZM19.2762 12.9356L12.4962 0.835588L11.6238 1.32441L18.4038 13.4244L19.2762 12.9356ZM12.06 1.08C11.7216 0.711915 11.7218 0.711777 11.7219 0.711643C11.7219 0.711604 11.7221 0.711474 11.7222 0.711396C11.7223 0.711241 11.7225 0.711102 11.7226 0.71098C11.7229 0.710737 11.7231 0.710561 11.7232 0.710452C11.7234 0.710235 11.7234 0.710285 11.723 0.710594C11.7224 0.711212 11.7205 0.712868 11.7175 0.715496C11.7114 0.720754 11.7007 0.729898 11.6854 0.742419C11.6548 0.76747 11.6059 0.805976 11.5391 0.853897C11.4052 0.949799 11.2001 1.08295 10.9267 1.22141C10.3802 1.49806 9.56137 1.79569 8.48962 1.86092L8.55038 2.85908C9.77863 2.78431 10.7298 2.44194 11.3783 2.11359C11.7024 1.94954 11.951 1.78895 12.1216 1.66673C12.2069 1.60558 12.2728 1.55393 12.319 1.5161C12.3421 1.49717 12.3603 1.48169 12.3736 1.47018C12.3802 1.46442 12.3856 1.45966 12.3897 1.45595C12.3918 1.4541 12.3935 1.45251 12.395 1.4512C12.3957 1.45054 12.3964 1.44995 12.3969 1.44943C12.3972 1.44917 12.3975 1.44893 12.3977 1.44871C12.3978 1.44859 12.398 1.44844 12.3981 1.44838C12.3982 1.44823 12.3984 1.44808 12.06 1.08ZM8.29276 2.80538C8.72491 3.02586 8.9729 3.25512 9.10755 3.41252C9.17539 3.49182 9.21599 3.55469 9.2374 3.59174C9.24813 3.6103 9.2541 3.6225 9.2563 3.62715C9.25739 3.62948 9.25754 3.62992 9.25687 3.62834C9.25653 3.62754 9.25599 3.62624 9.25526 3.62441C9.25489 3.6235 9.25448 3.62245 9.25402 3.62127C9.25379 3.62068 9.25355 3.62006 9.25329 3.6194C9.25317 3.61907 9.25304 3.61873 9.25291 3.61839C9.25284 3.61822 9.25274 3.61795 9.25271 3.61786C9.2526 3.6176 9.2525 3.61733 9.72 3.44C10.1875 3.26267 10.1874 3.2624 10.1873 3.26212C10.1873 3.26203 10.1871 3.26175 10.1871 3.26156C10.1869 3.26118 10.1868 3.26079 10.1866 3.26039C10.1863 3.25959 10.186 3.25875 10.1857 3.25788C10.185 3.25614 10.1842 3.25426 10.1834 3.25223C10.1818 3.24818 10.1799 3.24356 10.1777 3.23839C10.1733 3.22806 10.1678 3.21556 10.161 3.20105C10.1473 3.17203 10.1284 3.13501 10.1032 3.09139C10.0528 3.00406 9.97712 2.89068 9.86745 2.76248C9.6471 2.50488 9.29509 2.19414 8.74724 1.91462L8.29276 2.80538ZM9.27819 3.2059L5.19819 10.9059L6.08181 11.3741L10.1618 3.6741L9.27819 3.2059ZM5.64 11.14C5.21125 10.8828 5.21127 10.8827 5.21127 10.8827C5.21126 10.8827 5.21126 10.8827 5.21123 10.8828C5.21118 10.8829 5.21109 10.883 5.21096 10.8832C5.21069 10.8837 5.21026 10.8844 5.20967 10.8854C5.20848 10.8874 5.20663 10.8904 5.20415 10.8945C5.19918 10.9028 5.19165 10.9152 5.1817 10.9315C5.1618 10.9642 5.1322 11.0125 5.09393 11.0742C5.01738 11.1977 4.90626 11.3747 4.76883 11.5873C4.49354 12.0132 4.11468 12.5789 3.69791 13.1428C3.27887 13.7097 2.83196 14.2605 2.42076 14.6647C2.21476 14.8671 2.03003 15.0205 1.87296 15.1203C1.70684 15.2259 1.62061 15.24 1.6 15.24V16.24C1.89939 16.24 2.17941 16.1104 2.40923 15.9644C2.6481 15.8126 2.88899 15.6066 3.12174 15.3778C3.58804 14.9195 4.07113 14.3203 4.50209 13.7372C4.93533 13.1511 5.32646 12.5668 5.60867 12.1302C5.74999 11.9115 5.8645 11.7292 5.94388 11.6011C5.98358 11.537 6.01453 11.4865 6.03568 11.4518C6.04626 11.4345 6.05439 11.421 6.05994 11.4119C6.06272 11.4073 6.06485 11.4037 6.06632 11.4013C6.06706 11.4001 6.06763 11.3991 6.06804 11.3984C6.06824 11.3981 6.0684 11.3978 6.06852 11.3976C6.06858 11.3975 6.06863 11.3974 6.06866 11.3974C6.06871 11.3973 6.06875 11.3972 5.64 11.14ZM1.1 15.74V16H2.1V15.74H1.1ZM1.6 16.5H6.86V15.5H1.6V16.5ZM7.36 16V15.74H6.36V16H7.36ZM6.86 15.24C6.49507 15.24 6.00145 15.0626 5.77643 14.5754C5.54451 14.0732 5.50402 13.0527 6.52067 11.1562L5.63933 10.6838C4.57598 12.6673 4.43549 14.0568 4.86857 14.9946C5.30855 15.9474 6.24493 16.24 6.86 16.24V15.24ZM6.08 11.42H13.94V10.42H6.08V11.42ZM13.5078 11.1714L15.2878 14.2314L16.1522 13.7286L14.3722 10.6686L13.5078 11.1714ZM15.2937 14.2413C15.4755 14.5379 15.5955 14.7732 15.6647 14.9556C15.7371 15.1462 15.7358 15.2325 15.733 15.2513C15.7326 15.2539 15.7348 15.2393 15.7485 15.22C15.762 15.201 15.774 15.1954 15.7689 15.1981C15.747 15.2098 15.662 15.24 15.46 15.24V16.24C15.728 16.24 16.0055 16.2052 16.2392 16.0806C16.504 15.9395 16.6769 15.7011 16.722 15.3987C16.7617 15.1325 16.6967 14.8563 16.5996 14.6007C16.4995 14.3368 16.3445 14.0421 16.1463 13.7187L15.2937 14.2413ZM14.96 15.74V16H15.96V15.74H14.96ZM15.46 16.5H21V15.5H15.46V16.5ZM21.5 16V15.74H20.5V16H21.5ZM21 15.24C20.981 15.24 20.9101 15.2303 20.7753 15.1207C20.643 15.0132 20.4921 14.8443 20.3229 14.614C19.9812 14.1488 19.641 13.5432 19.2687 12.9228L18.4113 13.4372C18.759 14.0168 19.1388 14.6912 19.5171 15.206C19.7079 15.4657 19.917 15.7118 20.1447 15.8968C20.3699 16.0797 20.659 16.24 21 16.24V15.24ZM6.70254 10.8727L10.3625 3.91271L9.47746 3.44728L5.81746 10.4073L6.70254 10.8727ZM9.48274 3.9225L13.3427 10.8825L14.2173 10.3975L10.3573 3.4375L9.48274 3.9225ZM13.78 10.14H6.26V11.14H13.78V10.14ZM28.1655 1.64V2.14H28.6655V1.64H28.1655ZM28.1655 1.38H28.6655V0.88H28.1655V1.38ZM22.2055 1.38V0.88H21.7055V1.38H22.2055ZM22.2055 1.64H21.7055V2.14H22.2055V1.64ZM22.2055 15.74V15.24H21.7055V15.74H22.2055ZM22.2055 16H21.7055V16.5H22.2055V16ZM28.1655 16V16.5H28.6655V16H28.1655ZM28.1655 15.74H28.6655V15.24H28.1655V15.74ZM27.2655 3.08C27.2655 2.51823 27.3943 2.34293 27.4713 2.27847C27.569 2.19676 27.7558 2.14 28.1655 2.14V1.14C27.7352 1.14 27.222 1.18324 26.8296 1.51153C26.4167 1.85707 26.2655 2.40177 26.2655 3.08H27.2655ZM28.6655 1.64V1.38H27.6655V1.64H28.6655ZM28.1655 0.88H22.2055V1.88H28.1655V0.88ZM21.7055 1.38V1.64H22.7055V1.38H21.7055ZM22.2055 2.14C22.584 2.14 22.7773 2.19108 22.8852 2.27756C22.9678 2.34386 23.1055 2.52032 23.1055 3.08H24.1055C24.1055 2.37968 23.9331 1.83614 23.5108 1.49744C23.1136 1.17891 22.6069 1.14 22.2055 1.14V2.14ZM23.1055 3.08V14.3H24.1055V3.08H23.1055ZM23.1055 14.3C23.1055 14.8466 22.9693 15.0266 22.8828 15.0968C22.7732 15.1859 22.5774 15.24 22.2055 15.24V16.24C22.6135 16.24 23.1178 16.1941 23.5131 15.8732C23.9316 15.5334 24.1055 14.9934 24.1055 14.3H23.1055ZM21.7055 15.74V16H22.7055V15.74H21.7055ZM22.2055 16.5H28.1655V15.5H22.2055V16.5ZM28.6655 16V15.74H27.6655V16H28.6655ZM28.1655 15.24C27.7935 15.24 27.5978 15.1859 27.4881 15.0968C27.4016 15.0266 27.2655 14.8466 27.2655 14.3H26.2655C26.2655 14.9934 26.4393 15.5334 26.8578 15.8732C27.2532 16.1941 27.7574 16.24 28.1655 16.24V15.24ZM27.2655 14.3V3.08H26.2655V14.3H27.2655ZM42.7734 8.96L42.7341 8.46155L42.7754 9.46L42.7734 8.96ZM29.3934 1.38V0.88H28.8934V1.38H29.3934ZM29.3934 1.64H28.8934V2.14H29.3934V1.64ZM29.3734 15.74V15.24H28.8734V15.74H29.3734ZM29.3734 16H28.8734V16.5H29.3734V16ZM35.3934 16V16.5H35.8934V16H35.3934ZM35.3934 15.74H35.8934V15.24H35.3934V15.74ZM33.9934 9.04V8.54H33.4934V9.04H33.9934ZM50.2334 16V16.5H50.7334V16H50.2334ZM50.2334 15.74H50.7334V15.24H50.2334V15.74ZM33.9934 8.78H33.4934V9.28H33.9934V8.78ZM42.8128 9.45845C43.2249 9.42591 44.5232 9.25271 45.7357 8.66784C46.9503 8.08194 48.1934 7.01738 48.1934 5.18H47.1934C47.1934 6.46262 46.3566 7.25805 45.3012 7.76716C44.2437 8.27729 43.082 8.43409 42.7341 8.46155L42.8128 9.45845ZM48.1934 5.18C48.1934 4.07472 47.867 3.21999 47.3269 2.5771C46.7936 1.94246 46.0831 1.55085 45.3703 1.30693C43.9606 0.824531 42.4089 0.88 41.8534 0.88V1.88C42.4579 1.88 43.8262 1.83547 45.0466 2.25307C45.6488 2.45915 46.1807 2.76754 46.5613 3.2204C46.9348 3.66501 47.1934 4.28527 47.1934 5.18H48.1934ZM41.8534 0.88H29.3934V1.88H41.8534V0.88ZM28.8934 1.38V1.64H29.8934V1.38H28.8934ZM29.3934 2.14C29.6096 2.14 29.8171 2.14144 29.9829 2.23874C30.0922 2.30289 30.2934 2.47523 30.2934 3.1H31.2934C31.2934 2.22476 30.9847 1.66711 30.489 1.37626C30.0498 1.11856 29.5573 1.14 29.3934 1.14V2.14ZM30.2934 3.1V14.3H31.2934V3.1H30.2934ZM30.2934 14.3C30.2934 14.9469 30.1026 15.1013 30.0169 15.1518C29.8667 15.2404 29.6691 15.24 29.3734 15.24V16.24C29.5777 16.24 30.0902 16.2696 30.5249 16.0132C31.0243 15.7187 31.2934 15.1531 31.2934 14.3H30.2934ZM28.8734 15.74V16H29.8734V15.74H28.8734ZM29.3734 16.5H35.3934V15.5H29.3734V16.5ZM35.8934 16V15.74H34.8934V16H35.8934ZM35.3934 15.24C35.0521 15.24 34.8768 15.2425 34.7457 15.1618C34.6793 15.1209 34.4934 14.9712 34.4934 14.28H33.4934C33.4934 15.1288 33.7276 15.7091 34.2212 16.0132C34.6501 16.2775 35.1747 16.24 35.3934 16.24V15.24ZM34.4934 14.28V9.04H33.4934V14.28H34.4934ZM33.9934 9.54H40.7734V8.54H33.9934V9.54ZM40.7734 9.54C41.0154 9.54 41.3159 9.73672 41.6837 10.3766C42.0336 10.9854 42.3397 11.8106 42.6701 12.695C42.9907 13.5534 43.3351 14.4698 43.753 15.169C44.1571 15.8451 44.7377 16.5 45.5934 16.5V15.5C45.3092 15.5 44.9873 15.2849 44.6114 14.656C44.2493 14.0502 43.9361 13.2266 43.6068 12.345C43.2872 11.4894 42.9508 10.5746 42.5507 9.87836C42.1685 9.21328 41.6114 8.54 40.7734 8.54V9.54ZM45.5934 16.5H50.2334V15.5H45.5934V16.5ZM50.7334 16V15.74H49.7334V16H50.7334ZM50.2334 15.24C49.4846 15.24 49.0054 14.9188 48.6022 14.3787C48.1698 13.7994 47.864 13.0246 47.4703 12.1393C47.0925 11.2899 46.6407 10.362 45.9208 9.65438C45.1788 8.92487 44.1798 8.4545 42.7715 8.46L42.7754 9.46C43.9271 9.4555 44.6706 9.82763 45.2198 10.3675C45.7912 10.9292 46.1794 11.6976 46.5566 12.5457C46.9178 13.3579 47.282 14.2818 47.8009 14.9769C48.349 15.7112 49.1023 16.24 50.2334 16.24V15.24ZM34.4934 8.78V3.08H33.4934V8.78H34.4934ZM34.4934 3.08C34.4934 2.5801 34.5522 2.34412 34.6094 2.2424C34.6298 2.20602 34.6424 2.2008 34.6456 2.19913C34.6543 2.19461 34.6883 2.18 34.7734 2.18V1.18C34.5786 1.18 34.3751 1.21289 34.185 1.3115C33.9895 1.41295 33.8421 1.56648 33.7375 1.7526C33.5447 2.09588 33.4934 2.5599 33.4934 3.08H34.4934ZM34.7734 2.18H41.8534V1.18H34.7734V2.18ZM41.8534 2.18C42.5026 2.18 42.9149 2.47398 43.194 2.97561C43.492 3.5112 43.6334 4.28781 43.6334 5.18H44.6334C44.6334 4.21219 44.4848 3.2388 44.0679 2.48939C43.632 1.70602 42.9043 1.18 41.8534 1.18V2.18ZM43.6334 5.18C43.6334 6.61672 43.1841 7.37109 42.7408 7.77142C42.28 8.18758 41.7611 8.28 41.5534 8.28V9.28C41.9658 9.28 42.7369 9.12242 43.4111 8.51358C44.1028 7.88891 44.6334 6.84328 44.6334 5.18H43.6334ZM41.5534 8.28H33.9934V9.28H41.5534V8.28ZM60.3842 7.54L60.5169 7.05783L60.5072 7.05537L60.3842 7.54ZM66.9242 6.24L66.4242 6.23645L66.4207 6.74H66.9242V6.24ZM67.2042 6.24V6.74H67.6635L67.7024 6.2824L67.2042 6.24ZM67.5242 2.48L68.0224 2.5224L68.0526 2.16818L67.7279 2.02336L67.5242 2.48ZM60.1242 1.24L60.1127 1.74H60.1242V1.24ZM58.5442 10.1L58.6711 9.61633L58.6647 9.61474L58.5442 10.1ZM52.5442 11.3L53.0439 11.2831L53.0276 10.8H52.5442V11.3ZM52.2642 11.3V10.8H51.8142L51.767 11.2475L52.2642 11.3ZM51.8442 15.28L51.347 15.2275L51.3056 15.6192L51.6768 15.7511L51.8442 15.28ZM59.0842 16.14L59.0999 15.6402L59.0921 15.64H59.0842V16.14ZM60.5072 7.05537C59.171 6.71616 57.7127 6.41495 56.5639 5.92944C55.3934 5.43482 54.8042 4.85889 54.8042 4.1H53.8042C53.8042 5.52111 54.955 6.33518 56.1746 6.85056C57.4157 7.37505 58.9975 7.70384 60.2612 8.02463L60.5072 7.05537ZM54.8042 4.1C54.8042 3.67253 54.9761 3.34773 55.2847 3.07727C55.6086 2.7934 56.0849 2.57089 56.6638 2.40583C57.8208 2.07595 59.2223 2.02 60.1442 2.02V1.02C59.2062 1.02 57.6877 1.07405 56.3896 1.44416C55.741 1.62911 55.1061 1.9041 54.6256 2.32523C54.1298 2.75976 53.8042 3.34747 53.8042 4.1H54.8042ZM60.1442 2.02C61.7279 2.02 63.3316 2.47235 64.5228 3.24239C65.7152 4.01331 66.4326 5.05484 66.4242 6.23645L67.4242 6.24355C67.4358 4.60516 66.4332 3.28669 65.0657 2.4026C63.6968 1.51765 61.9006 1.02 60.1442 1.02V2.02ZM66.9242 6.74H67.2042V5.74H66.9242V6.74ZM67.7024 6.2824L68.0224 2.5224L67.026 2.4376L66.706 6.1976L67.7024 6.2824ZM67.5242 2.48C67.7279 2.02336 67.7277 2.0233 67.7276 2.02323C67.7275 2.0232 67.7274 2.02312 67.7272 2.02306C67.7269 2.02294 67.7266 2.0228 67.7263 2.02265C67.7256 2.02233 67.7247 2.02194 67.7236 2.02148C67.7215 2.02056 67.7188 2.01934 67.7153 2.01784C67.7084 2.01484 67.6988 2.01071 67.6865 2.00552C67.6619 1.99513 67.6267 1.98051 67.5809 1.96227C67.4894 1.92579 67.356 1.87481 67.1825 1.81422C66.8356 1.69303 66.3282 1.53332 65.6751 1.37421C64.3689 1.056 62.479 0.739999 60.1242 0.739999V1.74C62.3894 1.74 64.1995 2.04399 65.4384 2.34579C66.0578 2.49668 66.5341 2.64697 66.8528 2.75828C67.0121 2.81393 67.132 2.85983 67.2106 2.89116C67.2499 2.90683 67.2788 2.91885 67.2972 2.92663C67.3064 2.93052 67.313 2.93335 67.3169 2.93504C67.3188 2.93589 67.3201 2.93645 67.3207 2.93672C67.321 2.93685 67.3212 2.93691 67.3211 2.9369C67.3211 2.93689 67.3211 2.93687 67.321 2.93682C67.3209 2.9368 67.3208 2.93675 67.3208 2.93674C67.3207 2.93669 67.3205 2.93663 67.5242 2.48ZM60.1242 1.24C60.1357 0.740131 60.1356 0.740128 60.1354 0.740124C60.1353 0.740121 60.135 0.740116 60.1348 0.740111C60.1344 0.740102 60.1338 0.74009 60.1331 0.740075C60.1317 0.740046 60.1298 0.740007 60.1274 0.739961C60.1226 0.739869 60.1156 0.739747 60.1067 0.739614C60.0888 0.739349 60.063 0.739039 60.0296 0.738832C59.9629 0.738418 59.8663 0.738415 59.7439 0.740002C59.4993 0.743175 59.1514 0.752712 58.7344 0.778112C57.9028 0.828773 56.786 0.943144 55.6627 1.20009C54.5468 1.45534 53.3833 1.86029 52.4882 2.51564C51.5772 3.18265 50.9242 4.12843 50.9242 5.42H51.9242C51.9242 4.52156 52.3587 3.84985 53.079 3.32249C53.8152 2.78346 54.8267 2.41715 55.8857 2.17491C56.9374 1.93435 57.9956 1.82498 58.7952 1.77626C59.1939 1.75197 59.5257 1.74292 59.7569 1.73992C59.8724 1.73842 59.9627 1.73844 60.0234 1.73881C60.0538 1.739 60.0768 1.73928 60.0918 1.7395C60.0994 1.73962 60.1049 1.73971 60.1084 1.73978C60.1102 1.73981 60.1114 1.73984 60.1121 1.73985C60.1125 1.73986 60.1127 1.73987 60.1128 1.73987C60.1129 1.73987 60.1128 1.73987 60.1129 1.73987C60.1128 1.73987 60.1127 1.73987 60.1242 1.24ZM50.9242 5.42C50.9242 6.39009 51.2195 7.1775 51.7276 7.8112C52.2278 8.43518 52.9132 8.88422 53.6578 9.22674C55.1222 9.90044 56.9883 10.2288 58.4237 10.5853L58.6647 9.61474C57.1201 9.23118 55.4262 8.93956 54.0757 8.31826C53.4127 8.01328 52.8769 7.64606 52.5078 7.18568C52.1464 6.735 51.9242 6.16991 51.9242 5.42H50.9242ZM58.4173 10.5836C59.8594 10.9621 61.3927 11.2997 62.5886 11.7703C63.1837 12.0044 63.6495 12.2552 63.9597 12.5284C64.2607 12.7934 64.3842 13.0492 64.3842 13.32H65.3842C65.3842 12.6808 65.0677 12.1716 64.6206 11.7779C64.1827 11.3923 63.5922 11.0906 62.9548 10.8397C61.6857 10.3403 60.049 9.97794 58.6711 9.61637L58.4173 10.5836ZM64.3842 13.32C64.3842 13.718 64.1227 14.2085 63.2735 14.6264C62.4236 15.0445 61.064 15.34 59.1042 15.34V16.34C61.1444 16.34 62.6748 16.0355 63.715 15.5236C64.7557 15.0115 65.3842 14.242 65.3842 13.32H64.3842ZM59.1042 15.34C57.5778 15.34 56.059 14.9617 54.9262 14.2557C53.8021 13.5551 53.0869 12.5563 53.0439 11.2831L52.0445 11.3169C52.1015 13.0037 53.0663 14.2749 54.3973 15.1043C55.7194 15.9283 57.4306 16.34 59.1042 16.34V15.34ZM52.5442 10.8H52.2642V11.8H52.5442V10.8ZM51.767 11.2475L51.347 15.2275L52.3415 15.3325L52.7615 11.3525L51.767 11.2475ZM51.8442 15.28C51.6768 15.7511 51.6769 15.7512 51.6771 15.7512C51.6772 15.7513 51.6773 15.7513 51.6775 15.7514C51.6777 15.7515 51.6781 15.7516 51.6784 15.7517C51.6791 15.7519 51.6799 15.7522 51.6809 15.7526C51.6828 15.7533 51.6854 15.7541 51.6885 15.7552C51.6948 15.7574 51.7035 15.7603 51.7145 15.764C51.7365 15.7714 51.7681 15.7816 51.8091 15.7944C51.8911 15.8199 52.011 15.8554 52.1688 15.8975C52.4843 15.9817 52.9512 16.0922 53.5691 16.2023C54.805 16.4223 56.6443 16.64 59.0842 16.64V15.64C56.7041 15.64 54.9235 15.4277 53.7444 15.2177C53.1548 15.1128 52.7154 15.0083 52.4265 14.9313C52.2821 14.8927 52.1753 14.861 52.1062 14.8395C52.0716 14.8288 52.0464 14.8206 52.0307 14.8153C52.0228 14.8127 52.0173 14.8108 52.0141 14.8097C52.0125 14.8092 52.0115 14.8088 52.0111 14.8087C52.0109 14.8086 52.0108 14.8086 52.0109 14.8086C52.011 14.8086 52.0111 14.8087 52.0112 14.8087C52.0112 14.8087 52.0114 14.8088 52.0114 14.8088C52.0115 14.8088 52.0116 14.8089 51.8442 15.28ZM59.0842 16.14C59.0685 16.6398 59.0687 16.6398 59.0689 16.6398C59.069 16.6398 59.0692 16.6398 59.0694 16.6398C59.0698 16.6398 59.0704 16.6398 59.0711 16.6398C59.0724 16.6399 59.0744 16.6399 59.0768 16.64C59.0817 16.6401 59.0887 16.6403 59.0978 16.6405C59.1159 16.641 59.1423 16.6415 59.1763 16.6421C59.2443 16.6432 59.343 16.6442 59.4681 16.6441C59.718 16.6438 60.0738 16.6388 60.5002 16.6198C61.3508 16.582 62.4926 16.4884 63.6405 16.2631C64.7802 16.0395 65.9683 15.6784 66.8834 15.0824C67.8119 14.4776 68.5042 13.5955 68.5042 12.36H67.5042C67.5042 13.1545 67.0815 13.7599 66.3376 14.2445C65.5801 14.7378 64.5382 15.068 63.448 15.2819C62.3659 15.4941 61.2776 15.5843 60.4558 15.6208C60.0459 15.639 59.7048 15.6438 59.4669 15.6441C59.3481 15.6442 59.2551 15.6432 59.1925 15.6422C59.1612 15.6417 59.1374 15.6412 59.1218 15.6408C59.114 15.6406 59.1082 15.6405 59.1046 15.6404C59.1027 15.6403 59.1014 15.6403 59.1006 15.6403C59.1002 15.6403 59.1 15.6402 59.0999 15.6402C59.0998 15.6402 59.0998 15.6402 59.0998 15.6402C59.0998 15.6402 59.0999 15.6402 59.0842 16.14ZM68.5042 12.36C68.5042 10.4578 66.8587 9.28324 65.2176 8.54184C63.5382 7.78315 61.5707 7.34797 60.5169 7.05793L60.2515 8.02207C61.3777 8.33203 63.2203 8.73685 64.8059 9.45316C66.4297 10.1868 67.5042 11.1222 67.5042 12.36H68.5042ZM88.0777 1.64V2.14H88.5777V1.64H88.0777ZM88.0777 1.38H88.5777V0.88H88.0777V1.38ZM82.1177 1.38V0.88H81.6177V1.38H82.1177ZM82.1177 1.64H81.6177V2.14H82.1177V1.64ZM83.5177 8.54V9.04H84.0177V8.54H83.5177ZM73.7577 8.54H73.2577V9.04H73.7577V8.54ZM75.1577 1.64V2.14H75.6577V1.64H75.1577ZM75.1577 1.38H75.6577V0.88H75.1577V1.38ZM69.1977 1.38V0.88H68.6977V1.38H69.1977ZM69.1977 1.64H68.6977V2.14H69.1977V1.64ZM69.1977 15.74V15.24H68.6977V15.74H69.1977ZM69.1977 16H68.6977V16.5H69.1977V16ZM75.1577 16V16.5H75.6577V16H75.1577ZM75.1577 15.74H75.6577V15.24H75.1577V15.74ZM73.7577 8.82V8.32H73.2577V8.82H73.7577ZM83.5177 8.82H84.0177V8.32H83.5177V8.82ZM82.1177 15.74V15.24H81.6177V15.74H82.1177ZM82.1177 16H81.6177V16.5H82.1177V16ZM88.0777 16V16.5H88.5777V16H88.0777ZM88.0777 15.74H88.5777V15.24H88.0777V15.74ZM88.5777 1.64V1.38H87.5777V1.64H88.5777ZM88.0777 0.88H82.1177V1.88H88.0777V0.88ZM81.6177 1.38V1.64H82.6177V1.38H81.6177ZM82.1177 2.14C82.4962 2.14 82.6895 2.19108 82.7973 2.27756C82.88 2.34386 83.0177 2.52032 83.0177 3.08H84.0177C84.0177 2.37968 83.8453 1.83614 83.423 1.49744C83.0258 1.17891 82.5191 1.14 82.1177 1.14V2.14ZM83.0177 3.08V8.54H84.0177V3.08H83.0177ZM83.5177 8.04H73.7577V9.04H83.5177V8.04ZM74.2577 8.54V3.08H73.2577V8.54H74.2577ZM74.2577 3.08C74.2577 2.51823 74.3865 2.34293 74.4635 2.27847C74.5612 2.19676 74.7479 2.14 75.1577 2.14V1.14C74.7274 1.14 74.2141 1.18324 73.8218 1.51153C73.4088 1.85707 73.2577 2.40177 73.2577 3.08H74.2577ZM75.6577 1.64V1.38H74.6577V1.64H75.6577ZM75.1577 0.88H69.1977V1.88H75.1577V0.88ZM68.6977 1.38V1.64H69.6977V1.38H68.6977ZM69.1977 2.14C69.5762 2.14 69.7695 2.19108 69.8773 2.27756C69.96 2.34386 70.0977 2.52032 70.0977 3.08H71.0977C71.0977 2.37968 70.9253 1.83614 70.503 1.49744C70.1058 1.17891 69.5991 1.14 69.1977 1.14V2.14ZM70.0977 3.08V14.3H71.0977V3.08H70.0977ZM70.0977 14.3C70.0977 14.8466 69.9615 15.0266 69.875 15.0968C69.7653 15.1859 69.5696 15.24 69.1977 15.24V16.24C69.6057 16.24 70.11 16.1941 70.5053 15.8732C70.9238 15.5334 71.0977 14.9934 71.0977 14.3H70.0977ZM68.6977 15.74V16H69.6977V15.74H68.6977ZM69.1977 16.5H75.1577V15.5H69.1977V16.5ZM75.6577 16V15.74H74.6577V16H75.6577ZM75.1577 15.24C74.7857 15.24 74.59 15.1859 74.4803 15.0968C74.3938 15.0266 74.2577 14.8466 74.2577 14.3H73.2577C73.2577 14.9934 73.4315 15.5334 73.85 15.8732C74.2453 16.1941 74.7496 16.24 75.1577 16.24V15.24ZM74.2577 14.3V8.82H73.2577V14.3H74.2577ZM73.7577 9.32H83.5177V8.32H73.7577V9.32ZM83.0177 8.82V14.3H84.0177V8.82H83.0177ZM83.0177 14.3C83.0177 14.8466 82.8815 15.0266 82.795 15.0968C82.6853 15.1859 82.4896 15.24 82.1177 15.24V16.24C82.5257 16.24 83.03 16.1941 83.4253 15.8732C83.8438 15.5334 84.0177 14.9934 84.0177 14.3H83.0177ZM81.6177 15.74V16H82.6177V15.74H81.6177ZM82.1177 16.5H88.0777V15.5H82.1177V16.5ZM88.5777 16V15.74H87.5777V16H88.5777ZM88.0777 15.24C87.7057 15.24 87.51 15.1859 87.4003 15.0968C87.3138 15.0266 87.1777 14.8466 87.1777 14.3H86.1777C86.1777 14.9934 86.3515 15.5334 86.77 15.8732C87.1653 16.1941 87.6696 16.24 88.0777 16.24V15.24ZM87.1777 14.3V3.08H86.1777V14.3H87.1777ZM87.1777 3.08C87.1777 2.51823 87.3065 2.34293 87.3835 2.27847C87.4812 2.19676 87.6679 2.14 88.0777 2.14V1.14C87.6474 1.14 87.1341 1.18324 86.7418 1.51153C86.3288 1.85707 86.1777 2.40177 86.1777 3.08H87.1777ZM102.656 1.38V0.88H102.156V1.38H102.656ZM102.656 1.64H102.156V2.14H102.656V1.64ZM102.336 6.2L102.709 6.53269L102.71 6.5317L102.336 6.2ZM99.8758 8.96L99.4869 9.27422L99.8571 9.73245L100.249 9.29268L99.8758 8.96ZM94.5758 2.4L94.9647 2.08578L94.959 2.07874L94.9531 2.07191L94.5758 2.4ZM95.1358 1.64V2.14H95.6358V1.64H95.1358ZM95.1358 1.38H95.6358V0.88H95.1358V1.38ZM89.2758 1.38V0.88H88.7758V1.38H89.2758ZM89.2758 1.66H88.7758V2.16H89.2758V1.66ZM91.1358 3.2L90.7413 3.50738L90.7475 3.51504L91.1358 3.2ZM96.8158 10.2H97.3158V10.0227L97.204 9.88495L96.8158 10.2ZM95.4158 15.74V15.24H94.9158V15.74H95.4158ZM95.4158 16H94.9158V16.5H95.4158V16ZM101.376 16V16.5H101.876V16H101.376ZM101.376 15.74H101.876V15.24H101.376V15.74ZM99.9758 14.3L99.4758 14.298V14.3H99.9758ZM99.9958 9.24L99.6222 8.90767L99.4965 9.04894L99.4958 9.23802L99.9958 9.24ZM102.736 6.16L102.364 5.82581L102.362 5.82767L102.736 6.16ZM107.816 1.64V2.14H108.316V1.64H107.816ZM107.816 1.38H108.316V0.88H107.816V1.38ZM102.156 1.38V1.64H103.156V1.38H102.156ZM102.656 2.14C103.318 2.14 103.58 2.29528 103.676 2.4066C103.761 2.50471 103.822 2.69405 103.728 3.07219C103.537 3.8431 102.815 4.90536 101.962 5.8683L102.71 6.5317C103.576 5.55464 104.445 4.3369 104.699 3.31281C104.827 2.79344 104.825 2.20654 104.433 1.75278C104.052 1.31222 103.423 1.14 102.656 1.14V2.14ZM101.963 5.86731L99.5025 8.62731L100.249 9.29268L102.709 6.53269L101.963 5.86731ZM100.265 8.64578L94.9647 2.08578L94.1869 2.71422L99.4869 9.27422L100.265 8.64578ZM94.9531 2.07191C94.91 2.0224 94.8762 1.97998 94.8504 1.94405C94.8242 1.90739 94.8108 1.88367 94.805 1.87151C94.7986 1.85816 94.8071 1.87079 94.8107 1.90403C94.8148 1.94232 94.8114 2.00298 94.7797 2.06771C94.7486 2.13109 94.7066 2.16514 94.6863 2.17831C94.669 2.18956 94.6682 2.1855 94.7006 2.17674C94.7317 2.16834 94.7817 2.15871 94.8565 2.15145C94.9305 2.14427 95.0226 2.14 95.1358 2.14V1.14C94.8686 1.14 94.6327 1.1592 94.4397 1.21139C94.2594 1.26013 94.0095 1.36712 93.8819 1.62729C93.7498 1.89655 93.8323 2.15536 93.9028 2.30286C93.9767 2.45736 94.0897 2.60298 94.1985 2.72809L94.9531 2.07191ZM95.6358 1.64V1.38H94.6358V1.64H95.6358ZM95.1358 0.88H89.2758V1.88H95.1358V0.88ZM88.7758 1.38V1.66H89.7758V1.38H88.7758ZM89.2758 2.16C89.2652 2.16 89.2853 2.15817 89.3443 2.18404C89.4005 2.2087 89.472 2.24966 89.5572 2.30963C89.7285 2.43005 89.917 2.5996 90.0986 2.7824C90.278 2.96298 90.4397 3.14525 90.5571 3.28334C90.6156 3.35207 90.6624 3.40909 90.6944 3.4485C90.7103 3.46819 90.7225 3.48344 90.7305 3.4935C90.7345 3.49853 90.7374 3.50226 90.7392 3.50459C90.7402 3.50576 90.7408 3.50658 90.7412 3.50704C90.7413 3.50727 90.7414 3.50741 90.7415 3.50746C90.7415 3.50748 90.7415 3.50748 90.7415 3.50746C90.7415 3.50745 90.7415 3.50741 90.7414 3.50741C90.7414 3.50737 90.7414 3.50732 91.1358 3.2C91.5302 2.89267 91.5301 2.89262 91.5301 2.89255C91.5301 2.89252 91.53 2.89246 91.53 2.8924C91.5299 2.89228 91.5298 2.89214 91.5296 2.89198C91.5294 2.89165 91.5291 2.89124 91.5287 2.89073C91.5279 2.8897 91.5268 2.88831 91.5254 2.88657C91.5227 2.88308 91.5188 2.87816 91.5138 2.87191C91.5039 2.85941 91.4896 2.84157 91.4715 2.81916C91.4352 2.77435 91.3832 2.71106 91.3188 2.63541C91.1907 2.48474 91.0111 2.28202 90.808 2.0776C90.6071 1.8754 90.3718 1.65995 90.1325 1.49162C89.9144 1.33827 89.6058 1.16 89.2758 1.16V2.16ZM90.7475 3.51504L96.4275 10.515L97.204 9.88495L91.524 2.88495L90.7475 3.51504ZM96.3158 10.2V14.3H97.3158V10.2H96.3158ZM96.3158 14.3C96.3158 14.8368 96.175 15.0197 96.0819 15.0938C95.9641 15.1876 95.7627 15.24 95.4158 15.24V16.24C95.8088 16.24 96.3075 16.1924 96.7047 15.8762C97.1266 15.5403 97.3158 15.0032 97.3158 14.3H96.3158ZM94.9158 15.74V16H95.9158V15.74H94.9158ZM95.4158 16.5H101.376V15.5H95.4158V16.5ZM101.876 16V15.74H100.876V16H101.876ZM101.376 15.24C101.029 15.24 100.827 15.1876 100.71 15.0938C100.617 15.0197 100.476 14.8368 100.476 14.3H99.4758C99.4758 15.0032 99.665 15.5403 100.087 15.8762C100.484 16.1924 100.983 16.24 101.376 16.24V15.24ZM100.476 14.302L100.496 9.24198L99.4958 9.23802L99.4758 14.298L100.476 14.302ZM100.369 9.57233L103.109 6.49233L102.362 5.82767L99.6222 8.90767L100.369 9.57233ZM103.108 6.49418C103.725 5.80696 104.755 4.68802 105.742 3.74364C106.236 3.27037 106.709 2.85076 107.108 2.55261C107.308 2.4032 107.478 2.2925 107.615 2.22123C107.765 2.14328 107.824 2.14 107.816 2.14V1.14C107.578 1.14 107.344 1.23484 107.154 1.334C106.95 1.43984 106.732 1.58524 106.509 1.75176C106.063 2.08549 105.556 2.53713 105.05 3.02135C104.036 3.99198 102.986 5.13304 102.364 5.82582L103.108 6.49418ZM108.316 1.64V1.38H107.316V1.64H108.316ZM107.816 0.88H102.656V1.88H107.816V0.88ZM122.422 8.96L122.383 8.46155L122.424 9.46L122.422 8.96ZM109.042 1.38V0.88H108.542V1.38H109.042ZM109.042 1.64H108.542V2.14H109.042V1.64ZM109.022 15.74V15.24H108.522V15.74H109.022ZM109.022 16H108.522V16.5H109.022V16ZM115.042 16V16.5H115.542V16H115.042ZM115.042 15.74H115.542V15.24H115.042V15.74ZM113.642 9.04V8.54H113.142V9.04H113.642ZM129.882 16V16.5H130.382V16H129.882ZM129.882 15.74H130.382V15.24H129.882V15.74ZM113.642 8.78H113.142V9.28H113.642V8.78ZM122.461 9.45845C122.873 9.42591 124.172 9.25271 125.384 8.66784C126.599 8.08194 127.842 7.01738 127.842 5.18H126.842C126.842 6.46262 126.005 7.25805 124.95 7.76716C123.892 8.27729 122.73 8.43409 122.383 8.46155L122.461 9.45845ZM127.842 5.18C127.842 4.07472 127.515 3.21999 126.975 2.5771C126.442 1.94246 125.732 1.55085 125.019 1.30693C123.609 0.824531 122.057 0.88 121.502 0.88V1.88C122.106 1.88 123.475 1.83547 124.695 2.25307C125.297 2.45915 125.829 2.76754 126.21 3.2204C126.583 3.66501 126.842 4.28527 126.842 5.18H127.842ZM121.502 0.88H109.042V1.88H121.502V0.88ZM108.542 1.38V1.64H109.542V1.38H108.542ZM109.042 2.14C109.258 2.14 109.466 2.14144 109.631 2.23874C109.741 2.30289 109.942 2.47523 109.942 3.1H110.942C110.942 2.22476 110.633 1.66711 110.137 1.37626C109.698 1.11856 109.206 1.14 109.042 1.14V2.14ZM109.942 3.1V14.3H110.942V3.1H109.942ZM109.942 14.3C109.942 14.9469 109.751 15.1013 109.665 15.1518C109.515 15.2404 109.318 15.24 109.022 15.24V16.24C109.226 16.24 109.739 16.2696 110.173 16.0132C110.673 15.7187 110.942 15.1531 110.942 14.3H109.942ZM108.522 15.74V16H109.522V15.74H108.522ZM109.022 16.5H115.042V15.5H109.022V16.5ZM115.542 16V15.74H114.542V16H115.542ZM115.042 15.24C114.701 15.24 114.525 15.2425 114.394 15.1618C114.328 15.1209 114.142 14.9712 114.142 14.28H113.142C113.142 15.1288 113.376 15.7091 113.87 16.0132C114.299 16.2775 114.823 16.24 115.042 16.24V15.24ZM114.142 14.28V9.04H113.142V14.28H114.142ZM113.642 9.54H120.422V8.54H113.642V9.54ZM120.422 9.54C120.664 9.54 120.964 9.73672 121.332 10.3766C121.682 10.9854 121.988 11.8106 122.318 12.695C122.639 13.5534 122.984 14.4698 123.401 15.169C123.806 15.8451 124.386 16.5 125.242 16.5V15.5C124.958 15.5 124.636 15.2849 124.26 14.656C123.898 14.0502 123.585 13.2266 123.255 12.345C122.936 11.4894 122.599 10.5746 122.199 9.87836C121.817 9.21328 121.26 8.54 120.422 8.54V9.54ZM125.242 16.5H129.882V15.5H125.242V16.5ZM130.382 16V15.74H129.382V16H130.382ZM129.882 15.24C129.133 15.24 128.654 14.9188 128.251 14.3787C127.818 13.7994 127.512 13.0246 127.119 12.1393C126.741 11.2899 126.289 10.362 125.569 9.65438C124.827 8.92487 123.828 8.4545 122.42 8.46L122.424 9.46C123.576 9.4555 124.319 9.82763 124.868 10.3675C125.44 10.9292 125.828 11.6976 126.205 12.5457C126.566 13.3579 126.93 14.2818 127.449 14.9769C127.997 15.7112 128.751 16.24 129.882 16.24V15.24ZM114.142 8.78V3.08H113.142V8.78H114.142ZM114.142 3.08C114.142 2.5801 114.201 2.34412 114.258 2.2424C114.278 2.20602 114.291 2.2008 114.294 2.19913C114.303 2.19461 114.337 2.18 114.422 2.18V1.18C114.227 1.18 114.024 1.21289 113.833 1.3115C113.638 1.41295 113.491 1.56648 113.386 1.7526C113.193 2.09588 113.142 2.5599 113.142 3.08H114.142ZM114.422 2.18H121.502V1.18H114.422V2.18ZM121.502 2.18C122.151 2.18 122.563 2.47398 122.842 2.97561C123.14 3.5112 123.282 4.28781 123.282 5.18H124.282C124.282 4.21219 124.133 3.2388 123.716 2.48939C123.28 1.70602 122.553 1.18 121.502 1.18V2.18ZM123.282 5.18C123.282 6.61672 122.833 7.37109 122.389 7.77142C121.928 8.18758 121.41 8.28 121.202 8.28V9.28C121.614 9.28 122.385 9.12242 123.059 8.51358C123.751 7.88891 124.282 6.84328 124.282 5.18H123.282ZM121.202 8.28H113.642V9.28H121.202V8.28ZM148.213 11.5V11H147.83L147.73 11.3689L148.213 11.5ZM135.613 8.78V8.28H135.113V8.78H135.613ZM141.093 8.78L141.111 8.28033L141.102 8.28H141.093V8.78ZM144.473 11.52H143.973V12.02H144.473V11.52ZM144.793 11.52V12.02H145.293V11.52H144.793ZM144.793 5.68H145.293V5.18H144.793V5.68ZM144.473 5.68V5.18H143.973V5.68H144.473ZM141.133 8.5V9H141.141L141.15 8.9997L141.133 8.5ZM135.613 8.5H135.113V9H135.613V8.5ZM147.933 5.38L147.469 5.56832L147.596 5.88H147.933V5.38ZM148.273 5.38V5.88H148.839L148.769 5.31798L148.273 5.38ZM147.773 1.38L148.269 1.31798L148.214 0.88H147.773V1.38ZM131.073 1.38V0.88H130.573V1.38H131.073ZM131.073 1.64H130.573V2.14H131.073V1.64ZM131.073 15.74V15.24H130.573V15.74H131.073ZM131.073 16H130.573V16.5H131.073V16ZM148.313 16V16.5H148.789L148.812 16.0244L148.313 16ZM148.533 11.5L149.032 11.5244L149.058 11H148.533V11.5ZM147.73 11.3689C147.504 12.2002 146.95 13.1784 146.218 13.9448C145.479 14.7193 144.637 15.2 143.853 15.2V16.2C145.029 16.2 146.116 15.5007 146.942 14.6352C147.776 13.7616 148.421 12.6398 148.695 11.6311L147.73 11.3689ZM143.853 15.2H136.833V16.2H143.853V15.2ZM136.833 15.2C136.672 15.2 136.491 15.1417 136.356 15.0193C136.232 14.9074 136.113 14.7116 136.113 14.36H135.113C135.113 14.9684 135.333 15.4426 135.685 15.7607C136.024 16.0683 136.453 16.2 136.833 16.2V15.2ZM136.113 14.36V8.78H135.113V14.36H136.113ZM135.613 9.28H141.093V8.28H135.613V9.28ZM141.075 9.27967C141.783 9.30526 142.526 9.61267 143.092 10.0672C143.668 10.5307 143.973 11.0721 143.973 11.52H144.973C144.973 10.6479 144.417 9.84932 143.718 9.28781C143.009 8.71733 142.063 8.31473 141.111 8.28033L141.075 9.27967ZM144.473 12.02H144.793V11.02H144.473V12.02ZM145.293 11.52V5.68H144.293V11.52H145.293ZM144.793 5.18H144.473V6.18H144.793V5.18ZM143.973 5.68C143.973 6.14266 143.678 6.70596 143.122 7.1832C142.576 7.65243 141.846 7.9748 141.115 8.0003L141.15 8.9997C142.139 8.9652 143.08 8.53757 143.773 7.9418C144.458 7.35403 144.973 6.53734 144.973 5.68H143.973ZM141.133 8H135.613V9H141.133V8ZM136.113 8.5V3.02H135.113V8.5H136.113ZM136.113 3.02C136.113 2.73613 136.179 2.51481 136.276 2.37889C136.358 2.26502 136.48 2.18 136.713 2.18V1.18C136.165 1.18 135.737 1.41497 135.464 1.7961C135.206 2.15519 135.113 2.60387 135.113 3.02H136.113ZM136.713 2.18H143.173V1.18H136.713V2.18ZM143.173 2.18C143.977 2.18 144.874 2.5799 145.68 3.23538C146.481 3.8872 147.135 4.74634 147.469 5.56832L148.396 5.19167C147.99 4.19366 147.224 3.2028 146.311 2.45962C145.402 1.7201 144.288 1.18 143.173 1.18V2.18ZM147.933 5.88H148.273V4.88H147.933V5.88ZM148.769 5.31798L148.269 1.31798L147.277 1.44202L147.777 5.44202L148.769 5.31798ZM147.773 0.88H131.073V1.88H147.773V0.88ZM130.573 1.38V1.64H131.573V1.38H130.573ZM131.073 2.14C131.28 2.14 131.507 2.15612 131.679 2.26155C131.804 2.33764 131.993 2.51645 131.993 3.08H132.993C132.993 2.24354 132.682 1.70235 132.201 1.40845C131.768 1.14388 131.285 1.14 131.073 1.14V2.14ZM131.993 3.08V14.3H132.993V3.08H131.993ZM131.993 14.3C131.993 14.7803 131.856 14.9759 131.743 15.0682C131.611 15.1766 131.394 15.24 131.073 15.24V16.24C131.491 16.24 131.984 16.1634 132.377 15.8418C132.789 15.5041 132.993 14.9797 132.993 14.3H131.993ZM130.573 15.74V16H131.573V15.74H130.573ZM131.073 16.5H148.313V15.5H131.073V16.5ZM148.812 16.0244L149.032 11.5244L148.033 11.4756L147.813 15.9756L148.812 16.0244ZM148.533 11H148.213V12H148.533V11Z" fill="black"/>
</g>
</g>
<defs>
<filter id="filter0_d_272_8" x="-62.4004" y="-62.96" width="274.933" height="143.38" filterUnits="userSpaceOnUse" color-interpolation-filters="sRGB">
<feFlood flood-opacity="0" result="BackgroundImageFix"/>
<feColorMatrix in="SourceAlpha" type="matrix" values="0 0 0 0 0 0 0 0 0 0 0 0 0 0 0 0 0 0 127 0" result="hardAlpha"/>
<feOffset/>
<feGaussianBlur stdDeviation="32"/>
<feComposite in2="hardAlpha" operator="out"/>
<feColorMatrix type="matrix" values="0 0 0 0 1 0 0 0 0 1 0 0 0 0 1 0 0 0 0.5 0"/>
<feBlend mode="normal" in2="BackgroundImageFix" result="effect1_dropShadow_272_8"/>
<feBlend mode="normal" in="SourceGraphic" in2="effect1_dropShadow_272_8" result="shape"/>
</filter>
<clipPath id="clip0_272_8">
<rect width="151" height="17" fill="white"/>
</clipPath>
</defs>
</svg>
